<svg xmlns="http://www.w3.org/2000/svg" xmlns:xlink="http://www.w3.org/1999/xlink" width="52.266" height="62.527" viewBox="0 0 69.222 73.036"><defs><style>.a{fill:none;}.b{isolation:isolate;}.c{fill:#fb8192;}.d{fill:url(#a);}.e{fill:url(#b);}.f{fill:#00d089;}.g{fill:url(#c);}.h{fill:url(#d);}.i{fill:#bfb7ed;}.j{fill:#6f56f4;}.k{fill:#8c78f6;}.l{fill:#009965;}.m{fill:#006845;}.n{fill:#523fb4;}.o{fill:#423391;}.p{fill:#6f2b35;}.q{fill:#84333f;}.r{fill:#bf4a5b;}.s{clip-path:url(#e);}.t{fill:#7a573f;}.u{fill:#eaa879;}.v{fill:#ad7c59;}.w{clip-path:url(#f);}.x{fill:#81323d;}.y{fill:#853440;}.z{fill:#8a3542;}.aa{fill:#8e3744;}.ab{fill:#933946;}.ac{fill:#973a48;}.ad{fill:#9b3c4a;}.ae{fill:#a03e4c;}.af{fill:#7c303b;}.ag{fill:#782e39;}.ah{fill:#732d37;}.ai{fill:#de566a;}.aj{fill:#009974;}.ak{fill:#33ad90;}</style><linearGradient id="a" x1="3.616" y1="0.604" x2="-1.221" y2="0.442" gradientUnits="objectBoundingBox"><stop offset="0.175" stop-color="#6f56f4"/><stop offset="0.272" stop-color="#7356ee"/><stop offset="0.398" stop-color="#8056de"/><stop offset="0.539" stop-color="#9556c3"/><stop offset="0.691" stop-color="#b3569e"/><stop offset="0.851" stop-color="#d9566f"/><stop offset="0.868" stop-color="#de566a"/></linearGradient><linearGradient id="b" x1="-3.193" y1="-1.522" x2="1.501" y2="1.048" gradientUnits="objectBoundingBox"><stop offset="0.171" stop-color="#fa6177"/><stop offset="0.443" stop-color="#f35e73"/><stop offset="0.838" stop-color="#df566a"/><stop offset="0.868" stop-color="#de566a"/></linearGradient><linearGradient id="c" x1="-0.558" y1="0.241" x2="5.011" y2="1.605" gradientUnits="objectBoundingBox"><stop offset="0.075" stop-color="#008a69"/><stop offset="0.303" stop-color="#068e6e"/><stop offset="0.633" stop-color="#1a9b7d"/><stop offset="0.95" stop-color="#33ad90"/></linearGradient><linearGradient id="d" x1="-0.323" y1="0.297" x2="5.21" y2="1.662" gradientUnits="objectBoundingBox"><stop offset="0.07" stop-color="#22b57b"/><stop offset="0.237" stop-color="#25ba81"/><stop offset="0.478" stop-color="#2eca95"/><stop offset="0.765" stop-color="#3ce3b4"/><stop offset="0.949" stop-color="#48f7cd"/></linearGradient><clipPath id="e"><path class="a" d="M450.548,328.257l.009-2.922a4.492,4.492,0,0,0,.376,1.8l-.009,2.923A4.5,4.5,0,0,1,450.548,328.257Z" transform="translate(-450.548 -325.334)"/></clipPath><clipPath id="f"><path class="a" d="M476.253,325.458l-.008,2.923a5.162,5.162,0,0,1-1.592,3.556,9.537,9.537,0,0,1-2.1,1.614,16.539,16.539,0,0,1-5.94,1.944,19.58,19.58,0,0,1-12.038-1.944A7.676,7.676,0,0,1,451.2,330.1l.009-2.923a7.676,7.676,0,0,0,3.375,3.447,19.58,19.58,0,0,0,12.038,1.944,16.534,16.534,0,0,0,5.94-1.944,9.554,9.554,0,0,0,2.1-1.614A5.162,5.162,0,0,0,476.253,325.458Z" transform="translate(-451.198 -325.458)"/></clipPath></defs><g transform="translate(28.559)"><g transform="translate(0 58.252)"><g class="b"><g transform="translate(0.018)"><path class="c" d="M589.7,354.243l-7.253,4.215-7.3-4.215,7.253-4.215Z" transform="translate(-575.145 -350.029)"/></g><g transform="translate(7.3 4.215)"><path class="d" d="M595.565,357.639l-.018,6.355-7.253,4.215.018-6.355Z" transform="translate(-588.294 -357.639)"/></g><g transform="translate(0 4.215)"><path class="e" d="M582.431,361.854l-.018,6.355-7.3-4.215.018-6.355Z" transform="translate(-575.112 -357.639)"/></g></g></g><g transform="translate(25.96)"><g class="b"><g transform="translate(0.149)"><path class="f" d="M636.807,248.923l-7.253,4.071-7.3-4.071,7.253-4.071Z" transform="translate(-622.254 -244.852)"/></g><g transform="translate(7.301 4.071)"><path class="g" d="M642.568,252.2l-.149,50.7-7.253,4.071.149-50.7Z" transform="translate(-635.166 -252.202)"/></g><g transform="translate(0 4.071)"><path class="h" d="M629.434,256.273l-.149,50.7-7.3-4.071.149-50.7Z" transform="translate(-621.985 -252.202)"/></g></g></g><g transform="translate(13.774 22.501)"><g class="b"><g transform="translate(0.115)"><path class="i" d="M614.742,289.2l-7.252,3.72-7.3-3.721,7.252-3.72Z" transform="translate(-600.189 -285.478)"/></g><g transform="translate(7.301 3.721)"><path class="j" d="M620.531,292.2l-.115,35.675-7.252,3.72.115-35.675Z" transform="translate(-613.164 -292.196)"/></g><g transform="translate(0 3.72)"><path class="k" d="M607.4,295.916l-.115,35.675-7.3-3.721L600.1,292.2Z" transform="translate(-599.982 -292.195)"/></g></g></g></g><g transform="translate(0 29.169)"><g class="b" transform="translate(0)"><g transform="translate(12.712 15.449)"><path class="l" d="M484.849,322.356l-.008,2.923-12.335,1.76.008-2.923Z" transform="translate(-472.505 -322.356)"/></g><g transform="translate(9.634 10.058)"><path class="m" d="M470.275,320.2l-.008,2.923-3.078-7.151.008-2.923Z" transform="translate(-467.188 -313.044)"/></g><g transform="translate(12.582 17.209)"><path class="n" d="M472.419,325.4l-.008,2.923-.13.019.008-2.923Z" transform="translate(-472.281 -325.396)"/></g><g transform="translate(1.514 10.058)"><path class="j" d="M461.291,313.044l3.078,7.151-.129.019-11.077-3.519a9.454,9.454,0,0,1,2.189-1.706A16.566,16.566,0,0,1,461.291,313.044Z" transform="translate(-453.163 -313.044)"/></g><g transform="translate(1.506 13.709)"><path class="o" d="M464.234,322.869l-.008,2.923-11.077-3.519.008-2.923Z" transform="translate(-453.148 -319.35)"/></g><g transform="translate(12.712 17.209)"><path class="p" d="M472.543,325.465l-.008,2.923-.029-.07.008-2.923Z" transform="translate(-472.505 -325.396)"/></g><g transform="translate(12.582 17.228)"><path class="q" d="M472.449,325.479l-.008,2.923-.159-.051.008-2.923Z" transform="translate(-472.281 -325.428)"/></g><g transform="translate(12.591 17.209)"><path class="r" d="M472.425,325.4l.029.07-.159-.051Z" transform="translate(-472.296 -325.396)"/></g><g class="b" transform="translate(0 17.173)"><g class="s"><g class="b"><path class="t" d="M450.933,327.129l-.009,2.923a4.5,4.5,0,0,1-.376-1.8l.009-2.922a4.492,4.492,0,0,0,.376,1.8" transform="translate(-450.548 -325.334)"/></g></g></g><g transform="translate(0.008 13.709)"><path class="u" d="M463.145,322.869l-12.206,1.741a4.724,4.724,0,0,1,1.129-5.26Z" transform="translate(-450.563 -319.35)"/></g><g transform="translate(0.377 17.228)"><path class="v" d="M463.413,325.428l-.008,2.923L451.2,330.092l.008-2.923Z" transform="translate(-451.198 -325.428)"/></g><g class="b" transform="translate(0.376 17.245)"><g class="w"><g class="b"><path class="x" d="M494.468,325.458l-.008,2.923c0,.038,0,.075,0,.113l.008-2.923c0-.038,0-.075,0-.113" transform="translate(-469.413 -325.458)"/><path class="y" d="M494.405,325.654l-.008,2.923a4.319,4.319,0,0,1-.083.728l.008-2.923a4.322,4.322,0,0,0,.083-.729" transform="translate(-469.352 -325.541)"/><path class="z" d="M494.173,326.913l-.008,2.923a4.585,4.585,0,0,1-.206.715l.009-2.923a4.644,4.644,0,0,0,.2-.715" transform="translate(-469.203 -326.071)"/><path class="aa" d="M493.722,328.148l-.009,2.923a5.093,5.093,0,0,1-.337.721l.009-2.923a5.225,5.225,0,0,0,.338-.721" transform="translate(-468.957 -326.591)"/><path class="ab" d="M493.015,329.393l-.009,2.923a5.888,5.888,0,0,1-.508.755l.009-2.923a6.044,6.044,0,0,0,.508-.755" transform="translate(-468.588 -327.115)"/><path class="ac" d="M491.937,330.7l-.009,2.923a6.857,6.857,0,0,1-.456.523c-.1.109-.214.217-.329.323l.009-2.922c.115-.107.225-.214.329-.323q.247-.257.456-.523" transform="translate(-468.017 -327.664)"/><path class="ad" d="M490,332.159l-.009,2.923a9.84,9.84,0,0,1-1.588,1.182l.009-2.923A9.8,9.8,0,0,0,490,332.159" transform="translate(-466.862 -328.28)"/><path class="ae" d="M486.212,334.2l-.009,2.923c-.06.036-.122.073-.184.109a14.4,14.4,0,0,1-2.836,1.241l.008-2.922a14.385,14.385,0,0,0,2.836-1.241c.063-.036.124-.072.185-.109" transform="translate(-464.666 -329.139)"/><path class="ad" d="M481.478,336.533l-.008,2.923a18.484,18.484,0,0,1-2.357.583l.008-2.923a18.481,18.481,0,0,0,2.357-.583" transform="translate(-462.951 -330.121)"/><path class="ac" d="M477.937,337.54l-.008,2.922q-.371.067-.747.12-.437.063-.879.107l.008-2.923q.442-.043.879-.106c.251-.035.5-.076.747-.12" transform="translate(-461.769 -330.545)"/><path class="ab" d="M475.288,337.93l-.008,2.923q-.7.069-1.407.093l.008-2.922c.471-.016.941-.047,1.407-.094" transform="translate(-460.745 -330.709)"/><path class="aa" d="M472.933,338.092l-.008,2.922q-.65.023-1.3.006l.008-2.923q.65.017,1.3-.006" transform="translate(-459.798 -330.778)"/><path class="z" d="M470.722,338.054l-.008,2.922q-.627-.016-1.25-.067l.009-2.922c.415.034.832.056,1.25.067" transform="translate(-458.889 -330.733)"/><path class="y" d="M468.574,337.886l-.009,2.922q-.622-.051-1.235-.138l.009-2.923q.612.087,1.235.138" transform="translate(-457.99 -330.633)"/><path class="x" d="M466.425,337.589l-.009,2.923c-.423-.06-.843-.133-1.256-.219l.009-2.923q.62.128,1.256.218" transform="translate(-457.077 -330.474)"/><path class="af" d="M464.2,337.134l-.009,2.922c-.451-.093-.9-.2-1.33-.326l.008-2.923q.652.186,1.33.326" transform="translate(-456.11 -330.237)"/><path class="ag" d="M461.755,336.432l-.008,2.922c-.527-.15-1.04-.322-1.535-.518l.008-2.923c.495.2,1.008.368,1.535.518" transform="translate(-454.993 -329.861)"/><path class="ah" d="M456.425,332.765l-.008,2.923a13.838,13.838,0,0,1-1.843-.882,7.676,7.676,0,0,1-3.376-3.448l.009-2.923a7.676,7.676,0,0,0,3.375,3.447,13.836,13.836,0,0,0,1.843.883" transform="translate(-451.198 -326.711)"/></g></g></g><g transform="translate(0.385 15.449)"><path class="ai" d="M475.883,322.356a4.758,4.758,0,0,1-1.216,5.352,9.555,9.555,0,0,1-2.1,1.614,16.535,16.535,0,0,1-5.94,1.944,19.58,19.58,0,0,1-12.038-1.944,7.676,7.676,0,0,1-3.375-3.447l12.206-1.741.159.051-.03-.069Z" transform="translate(-451.213 -322.356)"/></g><g transform="translate(8.235)"><path class="f" d="M482.439,298.836a11.277,11.277,0,0,1,4.956,5.059l-18.105,2.583-4.517-10.5C470.894,295.113,477.638,296.064,482.439,298.836Z" transform="translate(-464.773 -295.671)"/><path class="aj" d="M490.661,309.876l-18.1,2.583-.028,2.145,18.139-2.5Z" transform="translate(-468.038 -301.652)"/><path class="ak" d="M464.773,296.208l4.518,10.5-.019,2.135-4.425-10.017Z" transform="translate(-464.773 -295.897)"/></g></g></g></svg>