<svg xmlns="http://www.w3.org/2000/svg" xmlns:xlink="http://www.w3.org/1999/xlink" width="88.649" height="62.527" viewBox="0 0 88.649 71.214"><defs><style>.a,.g,.h,.i{fill:#42e8e0;}.a{mix-blend-mode:lighten;isolation:isolate;}.b{fill:url(#a);}.c{fill:#bcbeff;}.d{fill:#fff;}.e{fill:#0f054c;}.f,.g{opacity:0.5;}.f{fill:url(#b);}.h{opacity:0.8;}.j{fill:#2fd3c7;}.k{fill:#18b2a3;opacity:0.7;}</style><linearGradient id="a" x1="-0.247" y1="0.5" x2="1.034" y2="0.5" gradientUnits="objectBoundingBox"><stop offset="0" stop-color="#5761d7"/><stop offset="0.164" stop-color="#5e67d9"/><stop offset="0.405" stop-color="#7179e1"/><stop offset="0.692" stop-color="#9197ee"/><stop offset="1" stop-color="#bcbeff"/></linearGradient><linearGradient id="b" y1="0.5" x2="1" y2="0.5" gradientUnits="objectBoundingBox"><stop offset="0" stop-color="#42e8e0"/><stop offset="0.151" stop-color="#42e3df"/><stop offset="0.328" stop-color="#44d4de"/><stop offset="0.52" stop-color="#48bddd"/><stop offset="0.721" stop-color="#4d9bda"/><stop offset="0.927" stop-color="#5471d8"/><stop offset="1" stop-color="#5761d7"/></linearGradient></defs><g transform="translate(0 23.521)"><g transform="translate(7.008)"><path class="a" d="M-167.758,133.809a1.271,1.271,0,0,1-.626-.191l-4.375-2.526.066-.114,4.375,2.526a.873.873,0,0,0,.874.093.873.873,0,0,0,.357-.8v-1.055a1,1,0,0,1,.423-.918,1,1,0,0,1,1.005.094l.914.527-.066.114-.914-.528a.874.874,0,0,0-.874-.093.873.873,0,0,0-.357.8v1.055a1,1,0,0,1-.422.918A.752.752,0,0,1-167.758,133.809Z" transform="translate(205.092 -130.723)"/><path class="a" d="M-171.846,136.161a1.268,1.268,0,0,1-.626-.191l-4.375-2.526.066-.114,4.375,2.526a.871.871,0,0,0,.874.093.872.872,0,0,0,.356-.8v-1.055a.994.994,0,0,1,.423-.917.994.994,0,0,1,1.006.093l.914.528-.066.114-.914-.527a.873.873,0,0,0-.874-.093.872.872,0,0,0-.356.8v1.055a1,1,0,0,1-.423.918A.746.746,0,0,1-171.846,136.161Z" transform="translate(207.479 -132.096)"/><path class="a" d="M-175.934,138.512a1.274,1.274,0,0,1-.627-.191l-4.375-2.526.066-.114,4.375,2.526a.872.872,0,0,0,.874.093.873.873,0,0,0,.356-.8v-1.055a1,1,0,0,1,.422-.917.993.993,0,0,1,1.006.093l.914.527-.066.114-.914-.528a.874.874,0,0,0-.874-.093.873.873,0,0,0-.356.8V137.5a1,1,0,0,1-.422.917A.745.745,0,0,1-175.934,138.512Z" transform="translate(209.865 -133.469)"/><path class="a" d="M-180.022,140.864a1.269,1.269,0,0,1-.627-.191l-4.375-2.526.066-.114,4.375,2.526a.871.871,0,0,0,.874.093.873.873,0,0,0,.356-.8v-1.055a1,1,0,0,1,.422-.917,1,1,0,0,1,1.006.093l.914.528-.066.114-.914-.527a.876.876,0,0,0-.874-.093.872.872,0,0,0-.356.8v1.055a1,1,0,0,1-.423.917A.747.747,0,0,1-180.022,140.864Z" transform="translate(212.251 -134.842)"/><path class="a" d="M-184.11,143.215a1.269,1.269,0,0,1-.627-.191l-4.375-2.526.066-.114,4.375,2.526a.873.873,0,0,0,.874.093.872.872,0,0,0,.356-.8v-1.055a1,1,0,0,1,.422-.917.993.993,0,0,1,1.006.093l.914.527-.066.114-.914-.528a.872.872,0,0,0-.874-.092.871.871,0,0,0-.356.8V142.2a1,1,0,0,1-.422.917A.745.745,0,0,1-184.11,143.215Z" transform="translate(214.638 -136.214)"/><path class="a" d="M-188.2,145.567a1.272,1.272,0,0,1-.626-.191l-4.375-2.526.066-.114,4.375,2.526a.872.872,0,0,0,.874.093.873.873,0,0,0,.356-.8V143.5a1,1,0,0,1,.422-.917,1,1,0,0,1,1.006.093l.914.527-.066.114-.914-.527a.874.874,0,0,0-.874-.093.873.873,0,0,0-.356.8v1.055a1,1,0,0,1-.422.917A.748.748,0,0,1-188.2,145.567Z" transform="translate(217.025 -137.587)"/><path class="a" d="M-192.287,147.919a1.272,1.272,0,0,1-.626-.191l-4.375-2.526.066-.114,4.375,2.526a.872.872,0,0,0,.874.092.872.872,0,0,0,.356-.8v-1.056a1,1,0,0,1,.422-.917.993.993,0,0,1,1.006.094l.914.528-.066.114-.914-.528a.871.871,0,0,0-.874-.093.873.873,0,0,0-.356.8V146.9a1,1,0,0,1-.422.917A.748.748,0,0,1-192.287,147.919Z" transform="translate(219.41 -138.96)"/><path class="a" d="M-196.375,150.271a1.276,1.276,0,0,1-.626-.191l-4.375-2.526.066-.114,4.375,2.526a.873.873,0,0,0,.874.093.874.874,0,0,0,.356-.8V148.2a1,1,0,0,1,.422-.918.994.994,0,0,1,1.006.093l.914.528-.066.114-.914-.528a.871.871,0,0,0-.874-.093.872.872,0,0,0-.357.8v1.055a1,1,0,0,1-.422.917A.75.75,0,0,1-196.375,150.271Z" transform="translate(221.797 -140.333)"/><path class="a" d="M-200.463,152.623a1.266,1.266,0,0,1-.626-.191l-4.375-2.526.066-.114,4.375,2.526a.872.872,0,0,0,.874.093.872.872,0,0,0,.357-.8v-1.055a1,1,0,0,1,.422-.918,1,1,0,0,1,1.006.094l.914.528-.066.114-.914-.528a.874.874,0,0,0-.874-.093.872.872,0,0,0-.357.8v1.055a1,1,0,0,1-.422.918A.753.753,0,0,1-200.463,152.623Z" transform="translate(224.184 -141.706)"/><path class="a" d="M-204.551,154.974a1.271,1.271,0,0,1-.626-.191l-4.375-2.526.066-.114,4.375,2.526a.871.871,0,0,0,.874.093.872.872,0,0,0,.356-.8V152.9a1,1,0,0,1,.422-.917.994.994,0,0,1,1.006.093l.914.527-.066.114-.914-.528a.875.875,0,0,0-.874-.093.873.873,0,0,0-.356.8v1.055a1,1,0,0,1-.423.918A.742.742,0,0,1-204.551,154.974Z" transform="translate(226.57 -143.078)"/><path class="a" d="M-208.639,157.326a1.27,1.27,0,0,1-.627-.191l-4.375-2.526.066-.114,4.375,2.526a.87.87,0,0,0,.875.093.872.872,0,0,0,.356-.8v-1.055a1,1,0,0,1,.422-.918,1,1,0,0,1,1.006.093l.914.528-.066.114-.914-.527a.875.875,0,0,0-.874-.093.872.872,0,0,0-.356.8v1.055a1,1,0,0,1-.422.917A.749.749,0,0,1-208.639,157.326Z" transform="translate(228.956 -144.451)"/><path class="a" d="M-212.727,159.677a1.273,1.273,0,0,1-.627-.191l-4.375-2.526.066-.114,4.375,2.526a.872.872,0,0,0,.874.093.872.872,0,0,0,.356-.8v-1.055a1,1,0,0,1,.422-.917.994.994,0,0,1,1.006.093l.914.527-.066.114-.914-.528a.875.875,0,0,0-.875-.093.873.873,0,0,0-.356.8v1.055a1,1,0,0,1-.423.917A.744.744,0,0,1-212.727,159.677Z" transform="translate(231.343 -145.824)"/><path class="a" d="M-216.816,162.029a1.272,1.272,0,0,1-.626-.191l-4.375-2.526.066-.114,4.375,2.526a.873.873,0,0,0,.874.093.873.873,0,0,0,.356-.8v-1.055a1,1,0,0,1,.422-.917.993.993,0,0,1,1.006.093l.914.527-.066.114-.914-.527a.872.872,0,0,0-.874-.093.872.872,0,0,0-.356.8v1.055a1,1,0,0,1-.423.917A.747.747,0,0,1-216.816,162.029Z" transform="translate(233.729 -147.197)"/><path class="a" d="M-220.9,164.381a1.272,1.272,0,0,1-.626-.191l-4.375-2.526.066-.114,4.375,2.526a.873.873,0,0,0,.874.093.872.872,0,0,0,.356-.8V162.31a1,1,0,0,1,.422-.917.993.993,0,0,1,1.006.094l.914.527-.066.114-.914-.528a.87.87,0,0,0-.874-.093.871.871,0,0,0-.356.8v1.055a1,1,0,0,1-.422.918A.748.748,0,0,1-220.9,164.381Z" transform="translate(236.116 -148.569)"/><path class="a" d="M-224.992,166.733a1.273,1.273,0,0,1-.626-.191l-4.375-2.526.066-.114,4.375,2.526a.873.873,0,0,0,.874.093.873.873,0,0,0,.356-.8v-1.055a1,1,0,0,1,.422-.917.993.993,0,0,1,1.006.093l.914.528-.066.114-.914-.527a.872.872,0,0,0-.874-.093.874.874,0,0,0-.356.8v1.055a1,1,0,0,1-.422.917A.748.748,0,0,1-224.992,166.733Z" transform="translate(238.502 -149.942)"/><path class="a" d="M-229.08,169.084a1.267,1.267,0,0,1-.626-.191l-4.375-2.526.066-.114,4.375,2.526a.874.874,0,0,0,.874.093.873.873,0,0,0,.357-.8v-1.055a1,1,0,0,1,.422-.918.993.993,0,0,1,1.006.094l.914.527-.066.114-.914-.528a.872.872,0,0,0-.874-.093.872.872,0,0,0-.356.8v1.055a1,1,0,0,1-.422.918A.752.752,0,0,1-229.08,169.084Z" transform="translate(240.889 -151.314)"/><path class="a" d="M-233.168,171.436a1.272,1.272,0,0,1-.627-.191l-4.375-2.526.066-.114,4.375,2.526a.872.872,0,0,0,.874.093.873.873,0,0,0,.357-.8v-1.055a1,1,0,0,1,.422-.918,1,1,0,0,1,1.006.093l.914.528-.066.114-.914-.527a.874.874,0,0,0-.874-.093.873.873,0,0,0-.357.8v1.055a1,1,0,0,1-.423.918A.748.748,0,0,1-233.168,171.436Z" transform="translate(243.275 -152.688)"/><path class="a" d="M-237.256,173.787a1.267,1.267,0,0,1-.626-.191l-4.375-2.526.066-.114,4.375,2.526a.87.87,0,0,0,.874.093.872.872,0,0,0,.356-.8v-1.056a1,1,0,0,1,.422-.917,1,1,0,0,1,1.006.093l.914.528-.066.114-.914-.528a.873.873,0,0,0-.874-.092.872.872,0,0,0-.356.8v1.056a1,1,0,0,1-.422.917A.749.749,0,0,1-237.256,173.787Z" transform="translate(245.661 -154.06)"/><path class="a" d="M-241.344,176.139a1.273,1.273,0,0,1-.627-.191l-4.375-2.526.066-.114,4.375,2.526a.872.872,0,0,0,.874.093.872.872,0,0,0,.356-.8v-1.055a1,1,0,0,1,.422-.917.993.993,0,0,1,1.006.093l.914.527-.066.114-.914-.528a.875.875,0,0,0-.874-.093.873.873,0,0,0-.356.8v1.055a1,1,0,0,1-.422.917A.745.745,0,0,1-241.344,176.139Z" transform="translate(248.048 -155.433)"/><path class="a" d="M-245.432,178.491a1.27,1.27,0,0,1-.627-.191l-4.375-2.526.066-.114,4.375,2.526a.872.872,0,0,0,.874.093.871.871,0,0,0,.356-.8v-1.055a1,1,0,0,1,.422-.917,1,1,0,0,1,1.006.093l.914.528-.066.114-.914-.527a.875.875,0,0,0-.875-.093.873.873,0,0,0-.356.8v1.055a1,1,0,0,1-.422.917A.747.747,0,0,1-245.432,178.491Z" transform="translate(250.434 -156.806)"/></g><g transform="translate(48.304 0.08)"><path class="a" d="M-148.215,134a.749.749,0,0,1-.379-.1,1,1,0,0,1-.422-.917V131.93a.872.872,0,0,0-.356-.8.872.872,0,0,0-.874.093l-.914.527-.066-.114.914-.527a1,1,0,0,1,1.006-.094,1,1,0,0,1,.422.917v1.056a.873.873,0,0,0,.356.8.873.873,0,0,0,.875-.092l4.375-2.526.066.114-4.375,2.526A1.272,1.272,0,0,1-148.215,134Z" transform="translate(151.226 -130.915)"/><path class="a" d="M-144.127,136.353a.748.748,0,0,1-.379-.1,1,1,0,0,1-.423-.917v-1.055a.873.873,0,0,0-.356-.8.875.875,0,0,0-.875.093l-.914.527-.066-.114.914-.528a1,1,0,0,1,1.006-.093,1,1,0,0,1,.422.917v1.055a.873.873,0,0,0,.356.8.875.875,0,0,0,.874-.093l4.375-2.526.066.114-4.375,2.526A1.276,1.276,0,0,1-144.127,136.353Z" transform="translate(148.84 -132.288)"/><path class="a" d="M-140.038,138.7a.748.748,0,0,1-.379-.1,1,1,0,0,1-.423-.917v-1.055a.872.872,0,0,0-.356-.8.872.872,0,0,0-.874.093l-.914.528-.066-.114.914-.528a1,1,0,0,1,1.005-.094,1,1,0,0,1,.423.918v1.055a.872.872,0,0,0,.356.8.871.871,0,0,0,.874-.092l4.375-2.526.066.114-4.375,2.526A1.272,1.272,0,0,1-140.038,138.7Z" transform="translate(146.453 -133.661)"/><path class="a" d="M-135.95,141.057a.749.749,0,0,1-.379-.1,1,1,0,0,1-.422-.918v-1.055a.873.873,0,0,0-.357-.8.874.874,0,0,0-.874.093l-.914.528-.066-.114.914-.527a1,1,0,0,1,1.006-.094,1,1,0,0,1,.422.918v1.055a.873.873,0,0,0,.357.8.875.875,0,0,0,.874-.093l4.375-2.526.066.114-4.375,2.526A1.272,1.272,0,0,1-135.95,141.057Z" transform="translate(144.067 -135.034)"/><path class="a" d="M-131.862,143.408a.747.747,0,0,1-.379-.1,1,1,0,0,1-.422-.918v-1.055a.873.873,0,0,0-.356-.8.875.875,0,0,0-.874.093l-.914.527-.066-.114.914-.528a1,1,0,0,1,1.006-.093,1,1,0,0,1,.422.917v1.055a.871.871,0,0,0,.357.8.872.872,0,0,0,.874-.093l4.375-2.526.066.114-4.375,2.526A1.268,1.268,0,0,1-131.862,143.408Z" transform="translate(141.68 -136.407)"/><path class="a" d="M-127.775,145.759a.744.744,0,0,1-.379-.1,1,1,0,0,1-.422-.917v-1.055a.873.873,0,0,0-.356-.8.876.876,0,0,0-.874.093l-.914.528-.066-.114.914-.527a.994.994,0,0,1,1.006-.093,1,1,0,0,1,.422.917v1.055a.873.873,0,0,0,.356.8.874.874,0,0,0,.874-.093l4.375-2.526.066.114-4.375,2.526A1.272,1.272,0,0,1-127.775,145.759Z" transform="translate(139.294 -137.779)"/><path class="a" d="M-123.686,148.111a.748.748,0,0,1-.379-.1,1,1,0,0,1-.422-.917v-1.055a.872.872,0,0,0-.356-.8.876.876,0,0,0-.874.093l-.914.527-.066-.114.914-.528a1,1,0,0,1,1.006-.093,1,1,0,0,1,.422.917V147.1a.873.873,0,0,0,.356.8.871.871,0,0,0,.874-.093l4.375-2.526.066.114-4.375,2.526A1.27,1.27,0,0,1-123.686,148.111Z" transform="translate(136.907 -139.152)"/><path class="a" d="M-119.6,150.463a.749.749,0,0,1-.379-.1,1,1,0,0,1-.422-.918v-1.055a.872.872,0,0,0-.356-.8.872.872,0,0,0-.874.093l-.914.527-.066-.114.914-.527a1,1,0,0,1,1.006-.094,1,1,0,0,1,.422.917v1.055a.872.872,0,0,0,.356.8.874.874,0,0,0,.874-.093l4.375-2.526.066.114-4.375,2.526A1.271,1.271,0,0,1-119.6,150.463Z" transform="translate(134.521 -140.525)"/><path class="a" d="M-115.51,152.815a.749.749,0,0,1-.379-.1,1,1,0,0,1-.422-.917v-1.055a.873.873,0,0,0-.356-.8.872.872,0,0,0-.874.093l-.914.527-.066-.114.914-.528a1,1,0,0,1,1.006-.093,1,1,0,0,1,.423.917V151.8a.873.873,0,0,0,.356.8.873.873,0,0,0,.874-.093l4.375-2.526.066.114-4.375,2.526A1.272,1.272,0,0,1-115.51,152.815Z" transform="translate(132.135 -141.898)"/><path class="a" d="M-111.422,155.166a.748.748,0,0,1-.379-.1,1,1,0,0,1-.422-.917V153.1a.873.873,0,0,0-.356-.8.872.872,0,0,0-.874.093l-.914.528-.066-.114.914-.528a1,1,0,0,1,1.006-.094,1,1,0,0,1,.422.917v1.056a.872.872,0,0,0,.356.8.874.874,0,0,0,.874-.092l4.375-2.526.066.114-4.375,2.526A1.272,1.272,0,0,1-111.422,155.166Z" transform="translate(129.748 -143.27)"/><path class="a" d="M-107.333,157.518a.749.749,0,0,1-.379-.1,1,1,0,0,1-.422-.917v-1.055a.873.873,0,0,0-.356-.8.872.872,0,0,0-.874.093l-.914.528-.066-.114.914-.528a.993.993,0,0,1,1.005-.093,1,1,0,0,1,.423.918V156.5a.873.873,0,0,0,.356.8.873.873,0,0,0,.874-.093l4.375-2.526.066.114-4.375,2.526A1.276,1.276,0,0,1-107.333,157.518Z" transform="translate(127.362 -144.643)"/><path class="a" d="M-103.245,159.87a.753.753,0,0,1-.379-.1,1,1,0,0,1-.422-.918V157.8a.873.873,0,0,0-.357-.8.875.875,0,0,0-.874.093l-.914.528-.066-.114.914-.528a1,1,0,0,1,1.006-.094,1,1,0,0,1,.422.918v1.055a.872.872,0,0,0,.357.8.874.874,0,0,0,.874-.093l4.375-2.526.066.114-4.375,2.526A1.268,1.268,0,0,1-103.245,159.87Z" transform="translate(124.976 -146.016)"/><path class="a" d="M-99.157,162.222a.744.744,0,0,1-.379-.1,1,1,0,0,1-.422-.918v-1.055a.873.873,0,0,0-.356-.8.876.876,0,0,0-.874.093l-.914.528-.066-.114.914-.527a1,1,0,0,1,1.006-.093,1,1,0,0,1,.422.917v1.055a.872.872,0,0,0,.357.8.872.872,0,0,0,.874-.093l4.375-2.526.066.114-4.375,2.526A1.272,1.272,0,0,1-99.157,162.222Z" transform="translate(122.589 -147.389)"/><path class="a" d="M-95.069,164.573a.747.747,0,0,1-.379-.1,1,1,0,0,1-.422-.917V162.5a.872.872,0,0,0-.356-.8.874.874,0,0,0-.874.093l-.914.527-.066-.114.914-.528a1,1,0,0,1,1.006-.093.994.994,0,0,1,.423.917v1.055a.872.872,0,0,0,.356.8.871.871,0,0,0,.874-.093l4.375-2.526.066.114-4.375,2.526A1.268,1.268,0,0,1-95.069,164.573Z" transform="translate(120.202 -148.762)"/><path class="a" d="M-90.981,166.925a.744.744,0,0,1-.379-.1,1,1,0,0,1-.422-.917v-1.055a.871.871,0,0,0-.356-.8.874.874,0,0,0-.874.092l-.914.528-.066-.114.914-.527a1,1,0,0,1,1.006-.093,1,1,0,0,1,.422.917v1.055a.873.873,0,0,0,.356.8.872.872,0,0,0,.874-.093l4.375-2.526.066.114-4.375,2.526A1.27,1.27,0,0,1-90.981,166.925Z" transform="translate(117.816 -150.134)"/><path class="a" d="M-86.893,169.277a.748.748,0,0,1-.379-.1,1,1,0,0,1-.423-.917v-1.055a.872.872,0,0,0-.356-.8.873.873,0,0,0-.874.093l-.914.527-.066-.114.914-.527a1,1,0,0,1,1.006-.093,1,1,0,0,1,.422.917v1.055a.873.873,0,0,0,.356.8.874.874,0,0,0,.874-.093l4.375-2.526.066.114-4.375,2.526A1.272,1.272,0,0,1-86.893,169.277Z" transform="translate(115.43 -151.507)"/><path class="a" d="M-82.8,171.628a.75.75,0,0,1-.38-.1,1,1,0,0,1-.422-.918v-1.055a.872.872,0,0,0-.356-.8.871.871,0,0,0-.874.093l-.914.528-.066-.114.914-.527a.994.994,0,0,1,1.006-.094,1,1,0,0,1,.422.917v1.055a.872.872,0,0,0,.356.8.872.872,0,0,0,.874-.092l4.375-2.526.066.114-4.375,2.526A1.272,1.272,0,0,1-82.8,171.628Z" transform="translate(113.043 -152.88)"/><path class="a" d="M-78.717,173.98a.748.748,0,0,1-.379-.1,1,1,0,0,1-.422-.917V171.91a.873.873,0,0,0-.357-.8.87.87,0,0,0-.874.093l-.914.527-.066-.114.914-.528a1,1,0,0,1,1.006-.093,1,1,0,0,1,.423.918v1.055a.873.873,0,0,0,.356.8.875.875,0,0,0,.874-.093l4.375-2.526.066.114-4.375,2.526A1.276,1.276,0,0,1-78.717,173.98Z" transform="translate(110.657 -154.252)"/><path class="a" d="M-74.628,176.332a.752.752,0,0,1-.379-.1,1,1,0,0,1-.422-.918v-1.055a.874.874,0,0,0-.357-.8.872.872,0,0,0-.874.093l-.914.528-.066-.114.914-.528a1,1,0,0,1,1.005-.094,1,1,0,0,1,.423.918v1.055a.873.873,0,0,0,.356.8.871.871,0,0,0,.874-.093l4.375-2.526.066.114L-74,176.141A1.268,1.268,0,0,1-74.628,176.332Z" transform="translate(108.271 -155.626)"/><path class="a" d="M-70.541,178.684a.748.748,0,0,1-.379-.1,1,1,0,0,1-.422-.918v-1.055a.873.873,0,0,0-.356-.8.874.874,0,0,0-.874.093l-.914.528-.066-.114.914-.527a1,1,0,0,1,1.006-.093,1,1,0,0,1,.422.917v1.055a.874.874,0,0,0,.356.8.874.874,0,0,0,.874-.093l4.375-2.526.066.114-4.375,2.526A1.272,1.272,0,0,1-70.541,178.684Z" transform="translate(105.884 -156.999)"/></g><g transform="translate(14.222 0.423)"><path class="b" d="M-165.862,178.37v3.885l-33.62,19.41L-233.1,182.255V178.37Z" transform="translate(233.102 -158.96)"/><path class="c" d="M-199.481,170.56-233.1,151.149l33.62-19.41,33.621,19.411Z" transform="translate(233.102 -131.739)"/><path class="d" d="M-199.481,197.009l-33.227-19.184-.393.227,33.621,19.411,33.62-19.41-.393-.227Z" transform="translate(233.102 -158.641)"/><g transform="translate(7.761 0.721)"><path class="e" d="M-188.6,172.374l-25.859-14.93,25.858-14.929,25.859,14.929Z" transform="translate(214.456 -138.75)"/><path class="f" d="M-188.6,172.374l-25.859-14.93,25.858-14.929,25.859,14.93Z" transform="translate(214.457 -138.75)"/><path class="f" d="M-152.335,133.471l25.859,14.93v3.765l-25.859-14.93Z" transform="translate(178.194 -133.471)"/><path class="f" d="M-188.6,137.235l-25.859,14.929V148.4l25.858-14.929Z" transform="translate(214.457 -133.471)"/><path class="f" d="M-188.6,163.33l-25.859-14.93,25.858-14.929,25.859,14.93Z" transform="translate(214.457 -133.471)"/><path class="g" d="M-166.824,166.937l-10.333-5.966,10.332-5.965,10.333,5.966Z" transform="translate(192.683 -146.042)"/><path class="g" d="M-166.824,155.555l9.857,5.691.475-.274-10.333-5.966-10.332,5.965.475.274Z" transform="translate(192.683 -146.042)"/><path class="f" d="M-152.333,184.267v3.765l25.858-14.929v-3.765Z" transform="translate(178.192 -154.408)"/><path class="f" d="M-214.457,169.337V173.1l25.859,14.93v-3.765Z" transform="translate(214.457 -154.407)"/><path class="h" d="M-188.6,183.567l-25.5-14.724-.356.205,25.859,14.93,25.858-14.929-.356-.205Z" transform="translate(214.457 -154.119)"/></g></g><g transform="translate(48.304 20.235)"><path class="a" d="M-143.279,232.922l-4.375-2.526a3.013,3.013,0,0,1-1.362-2.359v-1.055a2.87,2.87,0,0,0-1.3-2.245l-.914-.528.066-.114.914.527a3.015,3.015,0,0,1,1.362,2.359v1.055a2.867,2.867,0,0,0,1.3,2.245l4.375,2.526Z" transform="translate(151.226 -205.463)"/><path class="a" d="M-139.191,230.566l-4.375-2.526a3.015,3.015,0,0,1-1.362-2.359v-1.055a2.867,2.867,0,0,0-1.3-2.245l-.914-.527.066-.114.914.528a3.013,3.013,0,0,1,1.362,2.359v1.055a2.87,2.87,0,0,0,1.3,2.245l4.375,2.526Z" transform="translate(148.84 -204.088)"/><path class="a" d="M-135.1,228.211l-4.375-2.526a3.015,3.015,0,0,1-1.362-2.359V222.27a2.871,2.871,0,0,0-1.3-2.245l-.914-.527.066-.114.914.527a3.016,3.016,0,0,1,1.362,2.359v1.055a2.87,2.87,0,0,0,1.3,2.246l4.375,2.526Z" transform="translate(146.453 -202.713)"/><path class="a" d="M-131.015,225.854l-4.375-2.526a3.014,3.014,0,0,1-1.362-2.359v-1.055a2.87,2.87,0,0,0-1.3-2.245l-.914-.527.066-.114.914.528a3.015,3.015,0,0,1,1.362,2.359v1.055a2.87,2.87,0,0,0,1.3,2.245l4.375,2.526Z" transform="translate(144.067 -201.337)"/><path class="a" d="M-126.926,223.5l-4.375-2.526a3.013,3.013,0,0,1-1.362-2.359v-1.055a2.868,2.868,0,0,0-1.3-2.245l-.914-.528.066-.114.914.527a3.014,3.014,0,0,1,1.362,2.359v1.055a2.87,2.87,0,0,0,1.3,2.245l4.375,2.526Z" transform="translate(141.68 -199.963)"/><path class="a" d="M-122.838,221.142l-4.375-2.525a3.015,3.015,0,0,1-1.362-2.359V215.2a2.871,2.871,0,0,0-1.3-2.246l-.914-.527.066-.114.914.527a3.015,3.015,0,0,1,1.362,2.359v1.055a2.872,2.872,0,0,0,1.3,2.246l4.375,2.525Z" transform="translate(139.294 -198.587)"/><path class="a" d="M-118.75,218.787l-4.375-2.526a3.014,3.014,0,0,1-1.362-2.359v-1.056a2.87,2.87,0,0,0-1.3-2.245l-.914-.528.066-.114.914.527a3.014,3.014,0,0,1,1.362,2.359V213.9a2.868,2.868,0,0,0,1.3,2.245l4.375,2.526Z" transform="translate(136.907 -197.212)"/><path class="a" d="M-114.662,216.431l-4.375-2.526a3.015,3.015,0,0,1-1.362-2.359v-1.055a2.87,2.87,0,0,0-1.3-2.245l-.914-.527.066-.114.914.528a3.013,3.013,0,0,1,1.362,2.359v1.055a2.871,2.871,0,0,0,1.3,2.245l4.375,2.526Z" transform="translate(134.521 -195.837)"/><path class="a" d="M-110.574,214.075l-4.375-2.525a3.015,3.015,0,0,1-1.362-2.359v-1.055a2.87,2.87,0,0,0-1.3-2.245l-.914-.527.066-.114.914.527a3.015,3.015,0,0,1,1.362,2.359v1.055a2.87,2.87,0,0,0,1.3,2.245l4.375,2.526Z" transform="translate(132.135 -194.462)"/><path class="a" d="M-106.486,211.719l-4.375-2.526a3.013,3.013,0,0,1-1.362-2.359v-1.055a2.87,2.87,0,0,0-1.3-2.245l-.914-.527.066-.114.914.528a3.015,3.015,0,0,1,1.362,2.359v1.055a2.868,2.868,0,0,0,1.3,2.245l4.375,2.526Z" transform="translate(129.748 -193.086)"/><path class="a" d="M-102.4,209.364l-4.375-2.526a3.014,3.014,0,0,1-1.362-2.359v-1.055a2.869,2.869,0,0,0-1.3-2.245l-.914-.528.066-.114.914.528A3.014,3.014,0,0,1-108,203.424v1.055a2.87,2.87,0,0,0,1.3,2.245l4.375,2.526Z" transform="translate(127.362 -191.712)"/><path class="a" d="M-98.309,207.008l-4.375-2.526a3.014,3.014,0,0,1-1.362-2.359v-1.055a2.87,2.87,0,0,0-1.3-2.245l-.914-.527.066-.114.914.527a3.016,3.016,0,0,1,1.362,2.359v1.055a2.869,2.869,0,0,0,1.3,2.245l4.375,2.526Z" transform="translate(124.976 -190.337)"/><path class="a" d="M-94.221,204.652l-4.375-2.526a3.014,3.014,0,0,1-1.362-2.359v-1.055a2.87,2.87,0,0,0-1.3-2.245l-.914-.527.066-.114.914.528a3.015,3.015,0,0,1,1.362,2.359v1.055a2.868,2.868,0,0,0,1.3,2.245l4.375,2.526Z" transform="translate(122.589 -188.961)"/><path class="a" d="M-90.133,202.3l-4.375-2.526a3.015,3.015,0,0,1-1.362-2.359v-1.055a2.868,2.868,0,0,0-1.3-2.245l-.914-.528.066-.114.914.527a3.013,3.013,0,0,1,1.362,2.359v1.055a2.869,2.869,0,0,0,1.3,2.245l4.375,2.526Z" transform="translate(120.202 -187.586)"/><path class="a" d="M-86.045,199.94l-4.375-2.526a3.014,3.014,0,0,1-1.362-2.359V194a2.871,2.871,0,0,0-1.3-2.246l-.914-.527.066-.114.914.528A3.015,3.015,0,0,1-91.651,194v1.055a2.868,2.868,0,0,0,1.3,2.245l4.375,2.526Z" transform="translate(117.816 -186.21)"/><path class="a" d="M-81.957,197.585l-4.375-2.526a3.014,3.014,0,0,1-1.362-2.359v-1.055a2.87,2.87,0,0,0-1.3-2.245l-.914-.528.066-.114.914.527a3.014,3.014,0,0,1,1.362,2.359V192.7a2.868,2.868,0,0,0,1.3,2.245l4.375,2.526Z" transform="translate(115.43 -184.836)"/><path class="a" d="M-77.869,195.229l-4.375-2.526a3.014,3.014,0,0,1-1.362-2.359v-1.055a2.869,2.869,0,0,0-1.3-2.245l-.914-.527.066-.114.914.528a3.014,3.014,0,0,1,1.362,2.359v1.055a2.871,2.871,0,0,0,1.3,2.245l4.375,2.526Z" transform="translate(113.043 -183.46)"/><path class="a" d="M-73.781,192.873l-4.375-2.526a3.013,3.013,0,0,1-1.362-2.359v-1.055a2.87,2.87,0,0,0-1.3-2.245l-.914-.528.066-.114.914.527a3.016,3.016,0,0,1,1.362,2.359v1.055a2.868,2.868,0,0,0,1.3,2.245l4.375,2.526Z" transform="translate(110.657 -182.085)"/><path class="a" d="M-69.693,190.517l-4.375-2.526a3.014,3.014,0,0,1-1.362-2.359v-1.055a2.87,2.87,0,0,0-1.3-2.245l-.914-.527.066-.114.914.528a3.015,3.015,0,0,1,1.362,2.359v1.055a2.871,2.871,0,0,0,1.3,2.245l4.375,2.526Z" transform="translate(108.271 -180.71)"/><path class="a" d="M-65.6,188.162l-4.375-2.526a3.015,3.015,0,0,1-1.362-2.359v-1.056a2.868,2.868,0,0,0-1.3-2.245l-.914-.528.066-.114.914.527a3.013,3.013,0,0,1,1.362,2.359v1.056a2.87,2.87,0,0,0,1.3,2.245l4.375,2.526Z" transform="translate(105.884 -179.335)"/></g><g transform="translate(0 20.235)"><path class="a" d="M-172.913,232.922l-.066-.114,4.375-2.526a2.869,2.869,0,0,0,1.3-2.245v-1.055a3.015,3.015,0,0,1,1.362-2.359l.914-.527.066.114-.914.528a2.869,2.869,0,0,0-1.3,2.245v1.055a3.013,3.013,0,0,1-1.362,2.359Z" transform="translate(212.228 -205.463)"/><path class="a" d="M-177,230.566l-.066-.114,4.375-2.526a2.87,2.87,0,0,0,1.3-2.245v-1.055a3.014,3.014,0,0,1,1.362-2.359l.914-.528.066.114-.914.527a2.868,2.868,0,0,0-1.3,2.245v1.055a3.015,3.015,0,0,1-1.362,2.359Z" transform="translate(214.614 -204.088)"/><path class="a" d="M-181.089,228.211l-.066-.114,4.375-2.526a2.87,2.87,0,0,0,1.3-2.246V222.27a3.015,3.015,0,0,1,1.362-2.359l.914-.527.066.114-.914.527a2.87,2.87,0,0,0-1.3,2.245v1.055a3.016,3.016,0,0,1-1.362,2.359Z" transform="translate(217 -202.713)"/><path class="a" d="M-185.177,225.854l-.066-.114,4.375-2.526a2.871,2.871,0,0,0,1.3-2.245v-1.055a3.015,3.015,0,0,1,1.362-2.359l.914-.528.066.114-.914.527a2.87,2.87,0,0,0-1.3,2.245v1.055a3.014,3.014,0,0,1-1.362,2.359Z" transform="translate(219.387 -201.337)"/><path class="a" d="M-189.265,223.5l-.066-.114,4.375-2.526a2.869,2.869,0,0,0,1.3-2.245v-1.055A3.013,3.013,0,0,1-182.3,215.2l.914-.527.066.114-.914.528a2.868,2.868,0,0,0-1.3,2.245v1.055a3.015,3.015,0,0,1-1.362,2.359Z" transform="translate(221.773 -199.963)"/><path class="a" d="M-193.353,221.142l-.066-.114,4.375-2.525a2.872,2.872,0,0,0,1.3-2.246V215.2a3.015,3.015,0,0,1,1.362-2.359l.914-.527.066.114-.914.527a2.871,2.871,0,0,0-1.3,2.246v1.055a3.016,3.016,0,0,1-1.362,2.359Z" transform="translate(224.16 -198.587)"/><path class="a" d="M-197.442,218.787l-.066-.114,4.375-2.526a2.868,2.868,0,0,0,1.3-2.245v-1.056a3.015,3.015,0,0,1,1.362-2.359l.914-.527.066.114-.914.528a2.87,2.87,0,0,0-1.3,2.245V213.9a3.013,3.013,0,0,1-1.362,2.359Z" transform="translate(226.546 -197.212)"/><path class="a" d="M-201.53,216.431l-.066-.114,4.375-2.526a2.87,2.87,0,0,0,1.3-2.245v-1.055a3.014,3.014,0,0,1,1.362-2.359l.914-.528.066.114-.914.527a2.869,2.869,0,0,0-1.3,2.245v1.055a3.014,3.014,0,0,1-1.362,2.359Z" transform="translate(228.933 -195.837)"/><path class="a" d="M-248.628,218.054l-.032-.018-18.609-10.683.065-.115,18.576,10.664,6.994-3.942,4.375-2.525a2.87,2.87,0,0,0,1.3-2.245v-1.055a3.015,3.015,0,0,1,1.362-2.359l.914-.527.066.114-.914.527a2.87,2.87,0,0,0-1.3,2.245v1.055a3.015,3.015,0,0,1-1.362,2.359l-4.375,2.525Z" transform="translate(267.269 -194.462)"/><path class="a" d="M-209.706,211.719l-.066-.114,4.375-2.526a2.868,2.868,0,0,0,1.3-2.245v-1.055a3.014,3.014,0,0,1,1.362-2.359l.914-.528.066.114-.914.527a2.871,2.871,0,0,0-1.3,2.245v1.055a3.014,3.014,0,0,1-1.362,2.359Z" transform="translate(233.705 -193.086)"/><path class="a" d="M-213.794,209.364l-.066-.114,4.375-2.526a2.87,2.87,0,0,0,1.3-2.245v-1.055a3.014,3.014,0,0,1,1.362-2.359l.914-.528.066.114-.914.528a2.868,2.868,0,0,0-1.3,2.245v1.055a3.015,3.015,0,0,1-1.362,2.359Z" transform="translate(236.092 -191.712)"/><path class="a" d="M-217.882,207.008l-.066-.114,4.375-2.526a2.869,2.869,0,0,0,1.3-2.245v-1.055a3.015,3.015,0,0,1,1.362-2.359l.914-.527.066.114-.914.527a2.87,2.87,0,0,0-1.3,2.245v1.055a3.014,3.014,0,0,1-1.362,2.359Z" transform="translate(238.478 -190.337)"/><path class="a" d="M-221.971,204.652l-.066-.114,4.375-2.526a2.867,2.867,0,0,0,1.3-2.245v-1.055A3.015,3.015,0,0,1-215,196.353l.914-.528.066.114-.914.527a2.87,2.87,0,0,0-1.3,2.245v1.055a3.013,3.013,0,0,1-1.362,2.359Z" transform="translate(240.865 -188.961)"/><path class="a" d="M-226.058,202.3l-.066-.114,4.375-2.526a2.87,2.87,0,0,0,1.3-2.245v-1.055A3.013,3.013,0,0,1-219.091,194l.914-.527.066.114-.914.528a2.867,2.867,0,0,0-1.3,2.245v1.055a3.015,3.015,0,0,1-1.362,2.359Z" transform="translate(243.251 -187.586)"/><path class="a" d="M-230.147,199.94l-.066-.114,4.375-2.526a2.868,2.868,0,0,0,1.3-2.245V194a3.016,3.016,0,0,1,1.362-2.359l.914-.528.066.114-.914.527a2.871,2.871,0,0,0-1.3,2.246v1.055a3.013,3.013,0,0,1-1.362,2.359Z" transform="translate(245.638 -186.21)"/><path class="a" d="M-234.235,197.585l-.066-.114,4.375-2.526a2.868,2.868,0,0,0,1.3-2.245v-1.055a3.015,3.015,0,0,1,1.362-2.359l.914-.527.066.114-.914.528a2.869,2.869,0,0,0-1.3,2.245V192.7a3.014,3.014,0,0,1-1.362,2.359Z" transform="translate(248.024 -184.836)"/><path class="a" d="M-238.323,195.229l-.066-.114,4.375-2.526a2.871,2.871,0,0,0,1.3-2.245v-1.055a3.014,3.014,0,0,1,1.362-2.359l.914-.528.066.114-.914.527a2.869,2.869,0,0,0-1.3,2.245v1.055a3.014,3.014,0,0,1-1.362,2.359Z" transform="translate(250.41 -183.46)"/><path class="a" d="M-242.411,192.873l-.066-.114,4.375-2.526a2.868,2.868,0,0,0,1.3-2.245v-1.055a3.015,3.015,0,0,1,1.362-2.359l.914-.527.066.114-.914.528a2.87,2.87,0,0,0-1.3,2.245v1.055a3.014,3.014,0,0,1-1.362,2.359Z" transform="translate(252.797 -182.085)"/><path class="a" d="M-246.5,190.517l-.066-.114,4.375-2.526a2.87,2.87,0,0,0,1.3-2.245v-1.055a3.014,3.014,0,0,1,1.362-2.359l.914-.528.066.114-.914.527a2.87,2.87,0,0,0-1.3,2.245v1.055a3.015,3.015,0,0,1-1.362,2.359Z" transform="translate(255.183 -180.71)"/><path class="a" d="M-250.587,188.162l-.066-.114,4.375-2.526a2.87,2.87,0,0,0,1.3-2.245v-1.056a3.013,3.013,0,0,1,1.362-2.359l.914-.527.066.114-.914.528a2.868,2.868,0,0,0-1.3,2.245v1.056a3.015,3.015,0,0,1-1.362,2.359Z" transform="translate(257.57 -179.335)"/></g></g><g transform="translate(25.277)"><g transform="translate(16.294 19.222)"><path class="i" d="M-161.129,132.716l-6.272-3.621v7.242l6.272,3.621,6.272-3.621v-7.242Z" transform="translate(167.401 -125.473)"/><path class="i" d="M-161.129,139.958l-6.272-3.621v-7.242l6.272,3.621Z" transform="translate(167.401 -125.473)"/><path class="j" d="M-146.061,136.336l-6.272,3.621v-7.242l6.272-3.621Z" transform="translate(158.605 -125.473)"/><path class="i" d="M-161.129,127.637l-6.272-3.621,6.272-3.621,6.272,3.621Z" transform="translate(167.401 -120.395)"/><path class="d" d="M-161.129,132.936l-6-3.464-.272.157,6.272,3.621,6.272-3.621-.272-.157Z" transform="translate(167.401 -125.694)"/></g><g transform="translate(24.441 23.87)"><path class="i" d="M-141.557,143.883l-6.272-3.621V147.5l6.272,3.621,6.272-3.621v-7.242Z" transform="translate(147.829 -136.641)"/><path class="i" d="M-141.557,151.125l-6.272-3.621v-7.242l6.272,3.621Z" transform="translate(147.829 -136.641)"/><path class="j" d="M-126.489,147.5l-6.272,3.621v-7.242l6.272-3.621Z" transform="translate(139.033 -136.641)"/><path class="i" d="M-141.557,138.8l-6.272-3.621,6.272-3.621,6.272,3.621Z" transform="translate(147.829 -131.563)"/><path class="d" d="M-141.557,144.1l-6-3.464-.272.157,6.272,3.621,6.272-3.621-.272-.157Z" transform="translate(147.829 -136.861)"/></g><g transform="translate(32.588 28.519)"><path class="i" d="M-121.985,155.05l-6.272-3.621v7.242l6.272,3.621,6.272-3.621v-7.242Z" transform="translate(128.257 -147.808)"/><path class="i" d="M-121.985,162.292l-6.272-3.621v-7.242l6.272,3.621Z" transform="translate(128.257 -147.808)"/><path class="j" d="M-106.918,158.671l-6.272,3.621V155.05l6.272-3.621Z" transform="translate(119.462 -147.808)"/><path class="i" d="M-121.985,149.972l-6.272-3.621,6.272-3.621,6.272,3.621Z" transform="translate(128.257 -142.73)"/><path class="d" d="M-121.985,155.05l-6-3.464-.272.157,6.272,3.621,6.272-3.621v-.314Z" transform="translate(128.257 -147.808)"/></g><g transform="translate(8.147 24.184)"><path class="i" d="M-180.7,144.637l-6.272-3.621v7.242l6.272,3.621,6.272-3.621v-7.242Z" transform="translate(186.973 -137.395)"/><path class="i" d="M-180.7,151.88l-6.272-3.621v-7.242l6.272,3.621Z" transform="translate(186.973 -137.395)"/><path class="j" d="M-165.633,148.258l-6.272,3.621v-7.242l6.272-3.621Z" transform="translate(178.177 -137.395)"/><path class="i" d="M-180.7,139.559l-6.272-3.621,6.272-3.621,6.272,3.621Z" transform="translate(186.973 -132.317)"/><path class="d" d="M-180.7,144.858l-6-3.464-.272.157,6.272,3.621,6.272-3.621-.272-.157Z" transform="translate(186.973 -137.616)"/></g><g transform="translate(16.294 28.833)"><path class="i" d="M-161.129,155.8l-6.272-3.621v7.242l6.272,3.621,6.272-3.621v-7.242Z" transform="translate(167.401 -148.562)"/><path class="i" d="M-161.129,163.047l-6.272-3.621v-7.242l6.272,3.621Z" transform="translate(167.401 -148.562)"/><path class="j" d="M-146.061,159.426l-6.272,3.621V155.8l6.272-3.621Z" transform="translate(158.605 -148.562)"/><path class="i" d="M-161.129,150.727l-6.272-3.621,6.272-3.621,6.272,3.621Z" transform="translate(167.401 -143.484)"/><path class="d" d="M-161.129,156.025l-6-3.464-.272.157,6.272,3.621,6.272-3.621-.272-.157Z" transform="translate(167.401 -148.783)"/></g><g transform="translate(24.441 33.481)"><path class="i" d="M-141.557,166.972l-6.272-3.621v7.242l6.272,3.621,6.272-3.621v-7.242Z" transform="translate(147.829 -159.73)"/><path class="i" d="M-141.557,174.214l-6.272-3.621v-7.242l6.272,3.621Z" transform="translate(147.829 -159.73)"/><path class="j" d="M-126.489,170.593l-6.272,3.621v-7.242l6.272-3.621Z" transform="translate(139.033 -159.73)"/><path class="i" d="M-141.557,161.894l-6.272-3.621,6.272-3.621,6.272,3.621Z" transform="translate(147.829 -154.652)"/><path class="d" d="M-141.557,166.972l-6-3.464-.272.157,6.272,3.621,6.272-3.621v-.314Z" transform="translate(147.829 -159.73)"/></g><g transform="translate(0 29.147)"><path class="i" d="M-200.273,156.559l-6.272-3.621v7.242l6.272,3.621L-194,160.18v-7.242Z" transform="translate(206.545 -149.317)"/><path class="i" d="M-200.273,163.8l-6.272-3.621v-7.242l6.272,3.621Z" transform="translate(206.545 -149.317)"/><path class="j" d="M-185.205,160.18l-6.272,3.621v-7.242l6.272-3.621Z" transform="translate(197.749 -149.317)"/><path class="i" d="M-200.273,151.481l-6.272-3.621,6.272-3.621L-194,147.86Z" transform="translate(206.545 -144.239)"/><path class="d" d="M-200.273,156.559l-6.272-3.621v.314l6.272,3.621,6.272-3.621-.272-.157Z" transform="translate(206.545 -149.317)"/></g><g transform="translate(8.147 33.795)"><path class="i" d="M-180.7,167.727l-6.272-3.621v7.242l6.272,3.621,6.272-3.621v-7.242Z" transform="translate(186.973 -160.484)"/><path class="i" d="M-180.7,174.969l-6.272-3.621v-7.242l6.272,3.621Z" transform="translate(186.973 -160.484)"/><path class="j" d="M-165.633,171.348l-6.272,3.621v-7.242l6.272-3.621Z" transform="translate(178.177 -160.484)"/><path class="i" d="M-180.7,162.649l-6.272-3.621,6.272-3.621,6.272,3.621Z" transform="translate(186.973 -155.406)"/><path class="d" d="M-180.7,167.727l-6.272-3.621v.314l6.272,3.621,6.272-3.621-.272-.157Z" transform="translate(186.973 -160.484)"/></g><g transform="translate(16.294 38.444)"><path class="i" d="M-161.129,178.894l-6.272-3.621v7.242l6.272,3.621,6.272-3.621v-7.242Z" transform="translate(167.401 -171.652)"/><path class="i" d="M-161.129,186.136l-6.272-3.621v-7.242l6.272,3.621Z" transform="translate(167.401 -171.652)"/><path class="j" d="M-146.061,182.515l-6.272,3.621v-7.242l6.272-3.621Z" transform="translate(158.605 -171.652)"/><path class="i" d="M-161.129,173.816l-6.272-3.621,6.272-3.621,6.272,3.621Z" transform="translate(167.401 -166.574)"/><path class="d" d="M-161.129,178.894l-6.272-3.621v.314l6.272,3.621,6.272-3.621v-.314Z" transform="translate(167.401 -171.652)"/></g><g transform="translate(16.294 9.611)"><path class="i" d="M-161.129,109.626l-6.272-3.621v7.242l6.272,3.621,6.272-3.621v-7.242Z" transform="translate(167.401 -102.384)"/><path class="i" d="M-161.129,116.869l-6.272-3.621v-7.242l6.272,3.621Z" transform="translate(167.401 -102.384)"/><path class="j" d="M-146.061,113.247l-6.272,3.621v-7.242l6.272-3.621Z" transform="translate(158.605 -102.384)"/><path class="i" d="M-161.129,104.548l-6.272-3.621,6.272-3.621,6.272,3.621Z" transform="translate(167.401 -97.306)"/><path class="d" d="M-161.129,109.847l-6-3.464-.272.157,6.272,3.621,6.272-3.621-.272-.157Z" transform="translate(167.401 -102.605)"/></g><g transform="translate(1.993 29.698)"><path class="k" d="M-158.333,174.21l-4.279-2.47,4.278-2.47,4.278,2.47Z" transform="translate(178.906 -159.402)"/><path class="k" d="M-177.905,163.043l-4.278-2.47,4.278-2.47,4.279,2.47Z" transform="translate(190.331 -152.883)"/><path class="k" d="M-138.762,162.288l-4.278-2.47,4.278-2.47,4.279,2.47Z" transform="translate(167.481 -152.442)"/><path class="k" d="M-119.152,150.5l-4.278-2.47,4.278-2.47,4.279,2.47Z" transform="translate(156.034 -145.563)"/><path class="k" d="M-197.477,151.876l-4.278-2.47,4.278-2.47,4.279,2.47Z" transform="translate(201.756 -146.364)"/></g><g transform="translate(24.441 14.259)"><path class="i" d="M-141.557,120.794l-6.272-3.621v7.242l6.272,3.621,6.272-3.621v-7.242Z" transform="translate(147.829 -113.552)"/><path class="i" d="M-141.557,128.036l-6.272-3.621v-7.242l6.272,3.621Z" transform="translate(147.829 -113.552)"/><path class="j" d="M-126.489,124.415l-6.272,3.621v-7.242l6.272-3.621Z" transform="translate(139.033 -113.552)"/><path class="i" d="M-141.557,115.716l-6.272-3.621,6.272-3.621,6.272,3.621Z" transform="translate(147.829 -108.474)"/><path class="d" d="M-141.557,121.014l-6-3.464-.272.157,6.272,3.621,6.272-3.621-.272-.157Z" transform="translate(147.829 -113.772)"/></g><g transform="translate(32.588 18.908)"><path class="i" d="M-121.985,131.961l-6.272-3.621v7.242l6.272,3.621,6.272-3.621V128.34Z" transform="translate(128.257 -124.719)"/><path class="i" d="M-121.985,139.2l-6.272-3.621V128.34l6.272,3.621Z" transform="translate(128.257 -124.719)"/><path class="j" d="M-106.918,135.582l-6.272,3.621v-7.242l6.272-3.621Z" transform="translate(119.462 -124.719)"/><path class="i" d="M-121.985,126.883l-6.272-3.621,6.272-3.621,6.272,3.621Z" transform="translate(128.257 -119.641)"/><path class="d" d="M-121.985,131.961l-6-3.464-.272.157,6.272,3.621,6.272-3.621v-.314Z" transform="translate(128.257 -124.719)"/></g><g transform="translate(8.147 14.574)"><path class="i" d="M-180.7,121.548l-6.272-3.621v7.242l6.272,3.621,6.272-3.621v-7.242Z" transform="translate(186.973 -114.306)"/><path class="i" d="M-180.7,128.79l-6.272-3.621v-7.242l6.272,3.621Z" transform="translate(186.973 -114.306)"/><path class="j" d="M-165.633,125.169l-6.272,3.621v-7.242l6.272-3.621Z" transform="translate(178.177 -114.306)"/><path class="i" d="M-180.7,116.47l-6.272-3.621,6.272-3.621,6.272,3.621Z" transform="translate(186.973 -109.228)"/><path class="d" d="M-180.7,121.769l-6-3.464-.272.157,6.272,3.621,6.272-3.621-.272-.157Z" transform="translate(186.973 -114.527)"/></g><g transform="translate(16.294 19.222)"><path class="i" d="M-161.129,132.716l-6.272-3.621v7.242l6.272,3.621,6.272-3.621v-7.242Z" transform="translate(167.401 -125.473)"/><path class="i" d="M-161.129,139.958l-6.272-3.621v-7.242l6.272,3.621Z" transform="translate(167.401 -125.473)"/><path class="j" d="M-146.061,136.337l-6.272,3.621v-7.242l6.272-3.621Z" transform="translate(158.605 -125.473)"/><path class="i" d="M-161.129,127.638l-6.272-3.621,6.272-3.621,6.272,3.621Z" transform="translate(167.401 -120.395)"/><path class="d" d="M-161.129,132.936l-6-3.464-.272.157,6.272,3.621,6.272-3.621-.272-.157Z" transform="translate(167.401 -125.694)"/></g><g transform="translate(24.441 23.87)"><path class="i" d="M-141.557,143.883l-6.272-3.621V147.5l6.272,3.621,6.272-3.621v-7.242Z" transform="translate(147.829 -136.641)"/><path class="i" d="M-141.557,151.125l-6.272-3.621v-7.242l6.272,3.621Z" transform="translate(147.829 -136.641)"/><path class="j" d="M-126.489,147.5l-6.272,3.621v-7.242l6.272-3.621Z" transform="translate(139.033 -136.641)"/><path class="i" d="M-141.557,138.8l-6.272-3.621,6.272-3.621,6.272,3.621Z" transform="translate(147.829 -131.563)"/><path class="d" d="M-141.557,143.883l-6-3.464-.272.157,6.272,3.621,6.272-3.621v-.314Z" transform="translate(147.829 -136.641)"/></g><g transform="translate(0 19.536)"><path class="i" d="M-200.273,133.47l-6.272-3.621v7.242l6.272,3.621,6.272-3.621v-7.242Z" transform="translate(206.545 -126.228)"/><path class="i" d="M-200.273,140.712l-6.272-3.621v-7.242l6.272,3.621Z" transform="translate(206.545 -126.228)"/><path class="j" d="M-185.205,137.091l-6.272,3.621V133.47l6.272-3.621Z" transform="translate(197.749 -126.228)"/><path class="i" d="M-200.273,128.392l-6.272-3.621,6.272-3.621,6.272,3.621Z" transform="translate(206.545 -121.15)"/><path class="d" d="M-200.273,133.691l-6-3.464-.272.157,6.272,3.621,6.272-3.621-.272-.157Z" transform="translate(206.545 -126.448)"/></g><g transform="translate(8.147 24.185)"><path class="i" d="M-180.7,144.638l-6.272-3.621v7.242l6.272,3.621,6.272-3.621v-7.242Z" transform="translate(186.973 -137.395)"/><path class="i" d="M-180.7,151.88l-6.272-3.621v-7.242l6.272,3.621Z" transform="translate(186.973 -137.395)"/><path class="j" d="M-165.633,148.258l-6.272,3.621v-7.242l6.272-3.621Z" transform="translate(178.177 -137.395)"/><path class="i" d="M-180.7,139.56l-6.272-3.621,6.272-3.621,6.272,3.621Z" transform="translate(186.973 -132.317)"/><path class="d" d="M-180.7,144.638l-6.272-3.621v.314l6.272,3.621,6.272-3.621-.272-.157Z" transform="translate(186.973 -137.395)"/></g><g transform="translate(16.294 28.833)"><path class="i" d="M-161.129,155.8l-6.272-3.621v7.242l6.272,3.621,6.272-3.621v-7.242Z" transform="translate(167.401 -148.563)"/><path class="i" d="M-161.129,163.047l-6.272-3.621v-7.242l6.272,3.621Z" transform="translate(167.401 -148.563)"/><path class="j" d="M-146.061,159.426l-6.272,3.621V155.8l6.272-3.621Z" transform="translate(158.605 -148.563)"/><path class="i" d="M-161.129,150.727l-6.272-3.621,6.272-3.621,6.272,3.621Z" transform="translate(167.401 -143.485)"/><path class="d" d="M-161.129,155.8l-6.272-3.621v.314l6.272,3.621,6.272-3.621v-.314Z" transform="translate(167.401 -148.563)"/></g><g transform="translate(1.993 20.13)"><path class="k" d="M-119.152,127.516l-4.278-2.47,4.278-2.47,4.279,2.47Z" transform="translate(156.034 -122.576)"/><path class="k" d="M-197.477,128.889l-4.278-2.47,4.278-2.47,4.279,2.47Z" transform="translate(201.756 -123.377)"/></g><g transform="translate(16.294)"><path class="i" d="M-161.129,86.537l-6.272-3.621v7.242l6.272,3.621,6.272-3.621V82.916Z" transform="translate(167.401 -79.295)"/><path class="i" d="M-161.129,93.78l-6.272-3.621V82.916l6.272,3.621Z" transform="translate(167.401 -79.295)"/><path class="j" d="M-146.061,90.158l-6.272,3.621V86.538l6.272-3.621Z" transform="translate(158.605 -79.295)"/><path class="i" d="M-161.129,81.459l-6.272-3.621,6.272-3.621,6.272,3.621Z" transform="translate(167.401 -74.217)"/><path class="d" d="M-161.129,86.537l-6.272-3.621v.314l6.272,3.621,6.272-3.621v-.314Z" transform="translate(167.401 -79.295)"/></g><g transform="translate(24.441 4.648)"><path class="i" d="M-141.557,97.7l-6.272-3.621v7.242l6.272,3.621,6.272-3.621V94.084Z" transform="translate(147.829 -90.462)"/><path class="i" d="M-141.557,104.947l-6.272-3.621V94.084l6.272,3.621Z" transform="translate(147.829 -90.463)"/><path class="j" d="M-126.489,101.326l-6.272,3.621V97.7l6.272-3.621Z" transform="translate(139.033 -90.463)"/><path class="i" d="M-141.557,92.627l-6.272-3.621,6.272-3.621,6.272,3.621Z" transform="translate(147.829 -85.384)"/><path class="d" d="M-141.557,97.7l-6.272-3.621V94.4l6.272,3.621,6.272-3.621v-.314Z" transform="translate(147.829 -90.462)"/></g><g transform="translate(32.588 9.297)"><path class="i" d="M-121.985,108.872l-6.272-3.621v7.242l6.272,3.621,6.272-3.621v-7.242Z" transform="translate(128.257 -101.63)"/><path class="i" d="M-121.985,116.114l-6.272-3.621v-7.242l6.272,3.621Z" transform="translate(128.257 -101.63)"/><path class="j" d="M-106.918,112.493l-6.272,3.621v-7.242l6.272-3.621Z" transform="translate(119.462 -101.63)"/><path class="i" d="M-121.985,103.794l-6.272-3.621,6.272-3.621,6.272,3.621Z" transform="translate(128.257 -96.552)"/><path class="d" d="M-121.985,108.872l-6.272-3.621v.314l6.272,3.621,6.272-3.621v-.314Z" transform="translate(128.257 -101.63)"/></g><g transform="translate(8.147 4.963)"><path class="i" d="M-180.7,98.459l-6.272-3.621v7.242l6.272,3.621,6.272-3.621V94.838Z" transform="translate(186.973 -91.217)"/><path class="i" d="M-180.7,105.7l-6.272-3.621V94.838l6.272,3.621Z" transform="translate(186.973 -91.217)"/><path class="j" d="M-165.633,102.08l-6.272,3.621V98.459l6.272-3.621Z" transform="translate(178.177 -91.217)"/><path class="i" d="M-180.7,93.381l-6.272-3.621,6.272-3.621,6.272,3.621Z" transform="translate(186.973 -86.139)"/><path class="d" d="M-180.7,98.459l-6.272-3.621v.314l6.272,3.621,6.272-3.621v-.314Z" transform="translate(186.973 -91.217)"/></g><g transform="translate(0 9.925)"><path class="i" d="M-200.273,110.381l-6.272-3.621V114l6.272,3.621L-194,114V106.76Z" transform="translate(206.545 -103.139)"/><path class="i" d="M-200.273,117.623-206.545,114V106.76l6.272,3.621Z" transform="translate(206.545 -103.139)"/><path class="j" d="M-185.205,114l-6.272,3.621v-7.242l6.272-3.621Z" transform="translate(197.749 -103.139)"/><path class="i" d="M-200.273,105.3l-6.272-3.621,6.272-3.621,6.272,3.621Z" transform="translate(206.545 -98.061)"/><path class="d" d="M-200.273,110.381l-6.272-3.621v.314l6.272,3.621,6.272-3.621v-.314Z" transform="translate(206.545 -103.139)"/></g></g></svg>