<svg xmlns="http://www.w3.org/2000/svg" xmlns:xlink="http://www.w3.org/1999/xlink" width="46" height="46" viewBox="0 0 46 46"><defs><style>.a{fill:rgba(173,220,255,0.59);}.b{fill:url(#a);}.c{fill:url(#b);}.d{fill:url(#c);}.e{fill:url(#e);}</style><linearGradient id="a" x1="0.5" y1="0.987" x2="0.5" y2="-0.663" gradientUnits="objectBoundingBox"><stop offset="0" stop-color="#00c0ff"/><stop offset="1" stop-color="#5558ff"/></linearGradient><linearGradient id="b" x1="0.5" y1="3.562" x2="0.5" y2="-0.164" xlink:href="#a"/><linearGradient id="c" x1="0.5" y1="0.909" x2="0.5" y2="-0.611" xlink:href="#a"/><linearGradient id="e" x1="0.5" y1="0.911" x2="0.5" y2="-0.612" xlink:href="#a"/></defs><g transform="translate(-0.091 -0.273)"><circle class="a" cx="23" cy="23" r="23" transform="translate(0.091 0.273)"/><g transform="translate(9.136 15.182)"><path class="b" d="M222.129,238.953H214.6l3.77,11.08Z" transform="translate(-204.409 -232.412)"/><path class="c" d="M220.426,167h-4.273l-1.635,4.906h7.543Z" transform="translate(-204.335 -167)"/><path class="d" d="M110.963,238.953H102.5l12.554,12.021Z" transform="translate(-102.5 -232.412)"/><path class="c" d="M107.166,167.24l-4.666,4.666h8.46L112.595,167h-4.851A.817.817,0,0,0,107.166,167.24Z" transform="translate(-102.5 -167)"/><path class="e" d="M271.643,250.952l12.532-12h-8.462Z" transform="translate(-256.266 -232.412)"/><path class="c" d="M303.253,167h-4.8l1.635,4.906h8.46l-4.721-4.666A.817.817,0,0,0,303.253,167Z" transform="translate(-280.643 -167)"/></g></g></svg>