<svg xmlns="http://www.w3.org/2000/svg" xmlns:xlink="http://www.w3.org/1999/xlink" width="52.266" height="62.527" viewBox="0 0 52.266 62.527"><defs><style>.a{fill:#43386b;}.b{fill:url(#a);}.c{fill:#a996eb;}.d{fill:url(#b);}.e{fill:url(#c);}.f{fill:url(#f);}.g{fill:url(#g);}</style><linearGradient id="a" x1="0.695" y1="0.585" x2="0.416" y2="0.251" gradientUnits="objectBoundingBox"><stop offset="0" stop-color="#43386b"/><stop offset="1" stop-color="#7662bd"/></linearGradient><linearGradient id="b" x1="0.5" y1="0.94" x2="0.5" y2="0.157" gradientUnits="objectBoundingBox"><stop offset="0" stop-color="#d5c9f1"/><stop offset="1" stop-color="#f2effa"/></linearGradient><linearGradient id="c" x1="0.5" y1="0.946" x2="0.5" y2="-0.147" gradientUnits="objectBoundingBox"><stop offset="0" stop-color="#a996eb"/><stop offset="1" stop-color="#d7d1eb"/></linearGradient><linearGradient id="f" x1="0" y1="0.5" x2="1" y2="0.5" xlink:href="#a"/><linearGradient id="g" x1="0.426" y1="0.64" x2="0.575" y2="0.382" xlink:href="#a"/></defs><g transform="translate(43.698 51.573)"><path class="a" d="M388.551,428.655a2.047,2.047,0,0,1-1.025-3.819l3.909-2.257a2.047,2.047,0,0,1,2.047,3.545l-3.909,2.257A2.04,2.04,0,0,1,388.551,428.655Z" transform="translate(-386.502 -422.305)"/></g><g transform="translate(0 28.567)"><path class="b" d="M102.946,257.374c0-7-4.258-15.14-9.511-18.173-2.641-1.525-4.874-1.414-6.753-.147l-4.072,2.351,12.865,26.081,4.416-2.564C101.769,263.691,102.946,261.056,102.946,257.374Z" transform="translate(-76.024 -237.572)"/><ellipse class="c" cx="8.261" cy="14.602" rx="8.261" ry="14.602" transform="translate(0 6.477) rotate(-23.078)"/><path class="d" d="M72.374,295.374c0,6.271-3.813,9.153-8.516,6.438s-8.516-10-8.516-16.271,3.813-9.153,8.516-6.438S72.374,289.1,72.374,295.374Z" transform="translate(-52.087 -272.688)"/><path class="e" d="M75.2,337.606c0,3.731-2.269,5.446-5.067,3.831s-5.067-5.95-5.067-9.682,2.269-5.446,5.067-3.831S75.2,333.875,75.2,337.606Z" transform="translate(-60.623 -315.911)"/></g><g transform="translate(24.953 14.126)"><path class="d" d="M334.226,143.414c0,6.271-3.813,9.153-8.516,6.438s-8.516-10-8.516-16.271,3.813-9.153,8.516-6.438S334.226,137.143,334.226,143.414Z" transform="translate(-306.913 -124.844)"/><path class="b" d="M307.354,139.2c0-7-4.258-15.14-9.511-18.173-2.641-1.525-4.874-1.414-6.753-.147l-4.072,2.351,12.865,26.081,3.963-2.3a4.788,4.788,0,0,0,.453-.263C306.177,145.513,307.354,142.878,307.354,139.2Z" transform="translate(-280.421 -119.385)"/><ellipse class="c" cx="8.261" cy="14.602" rx="8.261" ry="14.602" transform="translate(0 6.477) rotate(-23.078)"/><path class="f" d="M305.43,193.972c0,4.358-2.649,6.361-5.918,4.474s-5.918-6.949-5.918-11.307,2.649-6.361,5.918-4.474S305.43,189.614,305.43,193.972Z" transform="translate(-286.195 -173.86)"/></g><path class="g" d="M144,5.877l.1.015-.839-.484h0s-7.824-4.473-8.012-4.5a9.584,9.584,0,0,0-8.915.405A25.569,25.569,0,0,0,113.583,23.4v6.949a7.678,7.678,0,0,1,3.705,1.141,14.805,14.805,0,0,1,3.525,2.939v.025l1.91-1.1V27.49A23.654,23.654,0,0,1,134.518,7.062a7.789,7.789,0,0,1,3.528-1.046,7.779,7.779,0,0,1,.922,3.7v5.92a7.716,7.716,0,0,1,3.654,1.139,14.862,14.862,0,0,1,3.577,3V19.8l1.91-1.1V13.805A9.583,9.583,0,0,0,144,5.877Z" transform="translate(-103.215 -0.001)"/><path class="c" d="M174.7,62.765V56.907A23.654,23.654,0,0,1,186.5,36.478a7.787,7.787,0,0,1,11.68,6.743v5.99l1.91-1.1V43.222a9.7,9.7,0,0,0-14.545-8.4,25.569,25.569,0,0,0-12.749,22.082v6.961Z" transform="translate(-155.194 -29.417)"/><g transform="translate(22.846 54.839)"><path class="c" d="M227.755,456.733a4.806,4.806,0,0,1-2.4-.642l-9.118-5.264a.955.955,0,0,1,.955-1.654l9.118,5.264a2.9,2.9,0,0,0,2.9,0l8.124-4.69a.955.955,0,1,1,.955,1.654l-8.124,4.69A4.805,4.805,0,0,1,227.755,456.733Z" transform="translate(-215.757 -449.044)"/></g></svg>