<svg xmlns="http://www.w3.org/2000/svg" xmlns:xlink="http://www.w3.org/1999/xlink" width="52.266" height="62.527" viewBox="0 0 38.989 75.518"><defs><style>.a{fill:url(#a);}.b,.j,.l,.m{mix-blend-mode:color-dodge;}.b,.c,.j,.k,.l,.m{isolation:isolate;}.b{fill:url(#b);}.c{opacity:0.6;mix-blend-mode:screen;fill:url(#c);}.d{fill:url(#d);}.e{fill:url(#e);}.f{fill:url(#f);}.g{fill:url(#g);}.h{fill:url(#h);}.i{fill:url(#i);}.j{fill:url(#j);}.k{fill:#bcbec0;mix-blend-mode:multiply;}.l{fill:url(#k);}.m{fill:url(#l);}</style><linearGradient id="a" x1="-0.102" y1="0.032" x2="0.801" y2="0.616" gradientUnits="objectBoundingBox"><stop offset="0.056" stop-color="#200041"/><stop offset="0.258" stop-color="#210143"/><stop offset="0.357" stop-color="#25084a"/><stop offset="0.434" stop-color="#2c1357"/><stop offset="0.47" stop-color="#311b61"/><stop offset="0.482" stop-color="#351f65"/><stop offset="0.495" stop-color="#422c72"/><stop offset="0.509" stop-color="#574188"/><stop offset="0.523" stop-color="#755fa6"/><stop offset="0.53" stop-color="#8770b8"/><stop offset="0.537" stop-color="#7d66ae"/><stop offset="0.562" stop-color="#5c458c"/><stop offset="0.586" stop-color="#442e74"/><stop offset="0.608" stop-color="#351f66"/><stop offset="0.626" stop-color="#311b61"/><stop offset="0.672" stop-color="#2a1054"/><stop offset="0.749" stop-color="#220446"/><stop offset="0.813" stop-color="#200041"/><stop offset="1" stop-color="#200041"/></linearGradient><radialGradient id="b" cx="-0.249" cy="0.28" r="0.675" gradientTransform="matrix(-3.012, 0, 0, 1, 6.228, 0)" gradientUnits="objectBoundingBox"><stop offset="0" stop-color="#711f56"/><stop offset="0.161" stop-color="#6b1d51"/><stop offset="0.363" stop-color="#5c1946"/><stop offset="0.585" stop-color="#421232"/><stop offset="0.821" stop-color="#1f0818"/><stop offset="1"/></radialGradient><radialGradient id="c" cx="0.029" cy="0.218" r="0.377" gradientTransform="matrix(-2.722, 0, 0, 1, 3.684, 0)" gradientUnits="objectBoundingBox"><stop offset="0" stop-color="#af8afc"/><stop offset="1" stop-color="#10054d"/></radialGradient><linearGradient id="d" x1="1.06" y1="0.565" x2="-1.775" y2="0.239" gradientUnits="objectBoundingBox"><stop offset="0.187" stop-color="#3d065f"/><stop offset="0.934" stop-color="#3d065f"/></linearGradient><linearGradient id="e" x1="1.121" y1="0.977" x2="-0.377" y2="-0.162" gradientUnits="objectBoundingBox"><stop offset="0" stop-color="#311b61"/><stop offset="0.203" stop-color="#290e52"/><stop offset="0.495" stop-color="#200041"/><stop offset="1" stop-color="#0f001f"/></linearGradient><linearGradient id="f" x1="-0.007" y1="0.5" x2="0.993" y2="0.5" xlink:href="#e"/><linearGradient id="g" x1="-0.14" y1="0.086" x2="1.431" y2="1.114" gradientUnits="objectBoundingBox"><stop offset="0.01" stop-color="#9f19ab"/><stop offset="0.429" stop-color="#5f27bd"/><stop offset="0.904" stop-color="#3d065f"/></linearGradient><linearGradient id="h" x1="-171.752" y1="530.964" x2="-168.104" y2="530.964" xlink:href="#e"/><linearGradient id="i" x1="32.675" y1="0.51" x2="29.464" y2="0.484" gradientUnits="objectBoundingBox"><stop offset="0" stop-color="#3d065f"/><stop offset="1" stop-color="#5f27bd"/></linearGradient><radialGradient id="j" cx="0.909" cy="0.249" r="0.359" gradientTransform="matrix(-5.706, 0, 0, 1, 225.684, 0)" xlink:href="#b"/><radialGradient id="k" cx="0.5" cy="0.5" r="0.5" gradientTransform="matrix(0, -1, -1, 0, -29.519, -29.518)" gradientUnits="objectBoundingBox"><stop offset="0" stop-color="#972a74"/><stop offset="0.041" stop-color="#8a266a"/><stop offset="0.194" stop-color="#601a49"/><stop offset="0.35" stop-color="#3d112f"/><stop offset="0.507" stop-color="#22091a"/><stop offset="0.667" stop-color="#0f040b"/><stop offset="0.829" stop-color="#030102"/><stop offset="1"/></radialGradient><radialGradient id="l" cx="0.5" r="0.5" gradientTransform="matrix(0, -1, -1, 0, -40.029, -40.027)" xlink:href="#k"/></defs><g transform="translate(5.124 7.814)"><path class="a" d="M797.165,110.884,814.632,100.8c1.97-1.137,3.567-4.189,3.567-6.816V47.468c0-1.336,1.1-1.631.433-2.111-.025-.018-1.559-.715-1.588-.726a2.576,2.576,0,0,0-2.412.14L797.165,54.855c-1.97,1.138-3.568,4.189-3.568,6.816v46.516a3.224,3.224,0,0,0,1.169,2.846c.043.027,1.891.906,1.938.922C797.342,112.168,796.3,111.382,797.165,110.884Z" transform="translate(-793.598 -44.396)"/><path class="b" d="M797.791,56.09l17.467-10.084c.93-.537-16.5,10.406-16.5,10.406-1.97,1.137-3.568,4.189-3.568,6.816,0,0-.966,47.59-.966,46.194V62.906C794.223,60.279,795.82,57.228,797.791,56.09Z" transform="translate(-794.062 -45.578)"/><path class="c" d="M802.438,113.141l17.467-10.084c1.97-1.137,3.568-4.189,3.568-6.816V49.725c0-2.627-1.6-3.835-3.568-2.7L802.438,57.112c-1.97,1.137-3.568,4.189-3.568,6.816v46.516C798.871,113.071,800.468,114.278,802.438,113.141Z" transform="translate(-797.514 -46.033)"/><path class="d" d="M803.646,113.794l17.467-10.084c1.97-1.138,3.567-4.189,3.567-6.816V50.377c0-2.627-1.6-3.834-3.567-2.7L803.646,57.765c-1.97,1.137-3.567,4.189-3.567,6.816V111.1C800.079,113.724,801.676,114.931,803.646,113.794Z" transform="translate(-798.412 -46.517)"/><path class="e" d="M825.6,99.044V52.471c0-2.3-1.4-3.361-3.127-2.364L805.1,60.137a7.49,7.49,0,0,0-3.127,5.975v46.573c0,2.3,1.4,3.361,3.127,2.364l17.374-10.031A7.49,7.49,0,0,0,825.6,99.044Z" transform="translate(-799.816 -48.359)"/><path class="f" d="M826.91,102.114V55.777c0-1.928-1.172-2.814-2.618-1.979l-17,9.817a6.269,6.269,0,0,0-2.618,5v46.337c0,1.928,1.172,2.814,2.618,1.979l17-9.817A6.269,6.269,0,0,0,826.91,102.114Z" transform="translate(-801.822 -51.146)"/><path class="g" d="M810.508,64.143c0,.969.684,1.359,1.529.872l9.515-5.493a3.369,3.369,0,0,0,1.529-2.637l2.018-1.165c1.363-.787,2.467-.157,2.467,1.407v46.858a5.436,5.436,0,0,1-2.467,4.255l-16.609,9.59c-1.363.787-2.467.157-2.467-1.407V69.564a5.437,5.437,0,0,1,2.467-4.256Z" transform="translate(-802.826 -52.554)"/><path class="h" d="M795.109,144.175v-3.14a1.307,1.307,0,0,0-.545-1.042h0c-.3-.174-.546.011-.546.412v3.14a1.306,1.306,0,0,0,.546,1.042h0C794.864,144.761,795.109,144.577,795.109,144.175Z" transform="translate(-793.91 -115.349)"/><path class="i" d="M795.12,144.875c.156,0,.211-.194.211-.36v-3.14a1.2,1.2,0,0,0-.486-.94.33.33,0,0,0-.157-.05c-.156,0-.211.194-.211.36v3.14a1.2,1.2,0,0,0,.487.94A.33.33,0,0,0,795.12,144.875Z" transform="translate(-794.25 -115.689)"/><path class="j" d="M795.366,144.6v-3.14a1.2,1.2,0,0,0-.486-.94.34.34,0,0,0-.14-.047.167.167,0,0,1,.143-.084.327.327,0,0,1,.157.05,1.2,1.2,0,0,1,.486.94v3.14c0,.166-.055.36-.211.36l-.018,0A.524.524,0,0,0,795.366,144.6Z" transform="translate(-794.446 -115.689)"/><path class="k" d="M806.021,69.564v46.858c0,1.564,1.1,2.193,2.467,1.407l16.609-9.59a5.436,5.436,0,0,0,2.467-4.255V57.125c0-1.564-1.1-2.193-2.467-1.407l-2.018,1.165a3.369,3.369,0,0,1-1.529,2.637l-9.515,5.493c-.844.488-1.529.1-1.529-.872l-2.018,1.165A5.437,5.437,0,0,0,806.021,69.564Zm.214,0a5.207,5.207,0,0,1,2.36-4.069l1.728-1a1.03,1.03,0,0,0,1.026.942,1.6,1.6,0,0,0,.793-.239l9.515-5.493a3.584,3.584,0,0,0,1.633-2.7l1.914-1.105a2.061,2.061,0,0,1,1-.31c.706,0,1.145.587,1.145,1.531v46.858a5.206,5.206,0,0,1-2.36,4.069l-16.61,9.59a2.059,2.059,0,0,1-1,.31h0a1.007,1.007,0,0,1-.815-.377,1.832,1.832,0,0,1-.33-1.154Z" transform="translate(-802.825 -52.554)"/></g><ellipse class="l" cx="9.618" cy="7.511" rx="9.618" ry="7.511" transform="translate(17.783 17.791) rotate(-67.66)"/><ellipse class="m" cx="6.266" cy="4.894" rx="6.266" ry="4.894" transform="translate(0 27.402) rotate(-67.659)"/></svg>