<svg xmlns="http://www.w3.org/2000/svg" xmlns:xlink="http://www.w3.org/1999/xlink" width="52.266" height="62.527" viewBox="0 0 67.104 56.659"><defs><style>.a{fill:#ef8e1d;}.b{fill:#ffe519;}.c,.f{fill:url(#a);}.d{fill:#ef5e1d;}.e{fill:#ff6719;}.f{mix-blend-mode:multiply;isolation:isolate;}</style><radialGradient id="a" cx="0.502" cy="-0.128" r="1.116" gradientTransform="translate(-0.403) scale(1.286 1)" gradientUnits="objectBoundingBox"><stop offset="0.003" stop-color="#ef8e1d"/><stop offset="1" stop-color="#ffe519"/></radialGradient></defs><path class="a" d="M449.105,173l-5.076-2.91-5.013,2.895c-.719.415-1.357.26-1.587-.382a9.151,9.151,0,0,0-.816-1.791,2.573,2.573,0,0,1,.312-2.379l1.407-2.44,1.517.44,3.428-3.073-5.01-2.828-.011.024a10.473,10.473,0,0,0-2.914-1.178l-3.546,6.131a3.364,3.364,0,0,1-1.174,1.244,1.516,1.516,0,0,1-.736.226,9.3,9.3,0,0,0-1.414.118l3.374-3.933-5.077-2.909a24.876,24.876,0,0,0-3.613,1.709,32.775,32.775,0,0,0-3.611,2.462l.015,5.76a3.661,3.661,0,0,1-1.122,2.471c-.672.64-1.326,1.332-1.953,2.06a2.974,2.974,0,0,1-.74.627,1.181,1.181,0,0,1-1.181.116L411,173.427a51.115,51.115,0,0,0-5.087,8.813l3.559,2.039c.5.286.641,1.1.325,2.011s-.587,1.816-.812,2.732a3.708,3.708,0,0,1-1.571,2.2l-5.022,2.9a32.274,32.274,0,0,0-.316,4.339,24.764,24.764,0,0,0,.339,3.962l5.077,2.909,2.263-1.749a4.1,4.1,0,0,1-.227.492l-3.536,6.126a10.069,10.069,0,0,0,2.486,1.912l-.006.009,4.987,2.843,2.755-5.366-2.362-1.227.8-1.379a3.39,3.39,0,0,1,1.179-1.246,1.521,1.521,0,0,1,.74-.228,10.34,10.34,0,0,0,1.959-.188c.683-.143,1.131.341,1.133,1.157l.017,5.761,5.076,2.909,3.545-4.991-1.4-3.876-.011-3.973a3.671,3.671,0,0,1,1.124-2.46A32.716,32.716,0,0,0,431,196.544l4.455,2.528a51.472,51.472,0,0,0,5.087-8.811l-3.559-2.029c-.511-.292-.641-1.1-.325-2.022a27.528,27.528,0,0,0,.8-2.725,3.682,3.682,0,0,1,1.58-2.2l5.013-2.895c.009-.066.012-.131.021-.2l1.5.055Zm-35.3,25.412h-.034l-.005-.054Zm9.442-3.152c-4.323,2.5-7.845.488-7.86-4.478s3.487-11.04,7.808-13.535,7.845-.488,7.86,4.489S427.579,192.759,423.249,195.259Z" transform="translate(-402.078 -159.375)"/><path class="b" d="M442.068,186.125a3.681,3.681,0,0,1,1.58-2.2l5.013-2.895a32.505,32.505,0,0,0,.316-4.339,24.407,24.407,0,0,0-.34-3.961l-5.013,2.894c-.718.415-1.357.26-1.586-.382a9.179,9.179,0,0,0-.816-1.791,2.57,2.57,0,0,1,.312-2.379l3.537-6.136a10.27,10.27,0,0,0-5.121-2.919l-3.546,6.132a3.37,3.37,0,0,1-1.173,1.244,1.5,1.5,0,0,1-.736.225,9.415,9.415,0,0,0-1.969.2c-.674.128-1.13-.341-1.132-1.168l-.017-5.76a24.82,24.82,0,0,0-3.613,1.709,32.666,32.666,0,0,0-3.611,2.462l.015,5.761a3.661,3.661,0,0,1-1.123,2.47c-.673.64-1.327,1.332-1.954,2.06a2.968,2.968,0,0,1-.739.627,1.182,1.182,0,0,1-1.181.116l-3.56-2.028a51.044,51.044,0,0,0-5.088,8.811l3.56,2.04c.5.285.641,1.095.325,2.011s-.587,1.815-.813,2.731a3.707,3.707,0,0,1-1.57,2.205l-5.022,2.9a31.911,31.911,0,0,0-.316,4.34,24.761,24.761,0,0,0,.339,3.961l5.022-2.9c.709-.41,1.348-.265,1.577.377a9.941,9.941,0,0,0,.826,1.786,2.618,2.618,0,0,1-.313,2.389l-3.537,6.126a10.045,10.045,0,0,0,5.121,2.919l3.537-6.127a3.405,3.405,0,0,1,1.178-1.246,1.552,1.552,0,0,1,.741-.228,10.249,10.249,0,0,0,1.959-.188c.683-.143,1.131.341,1.134,1.158l.015,5.76a23.91,23.91,0,0,0,3.614-1.7,31.3,31.3,0,0,0,3.611-2.472l-.017-5.761a3.677,3.677,0,0,1,1.122-2.46,32.477,32.477,0,0,0,2.99-3.318l4.455,2.528a51.426,51.426,0,0,0,5.087-8.811l-3.56-2.029c-.511-.291-.641-1.1-.325-2.021A27.372,27.372,0,0,0,442.068,186.125Zm-14.262-6.238c4.33-2.5,7.845-.487,7.86,4.489s-3.478,11.025-7.809,13.525-7.845.487-7.859-4.479S423.485,182.382,427.806,179.887Zm-9.39,21.165h-.035l0-.053Z" transform="translate(-401.61 -159.107)"/><path class="c" d="M426.758,199.977c-5.985,3.455-10.873.669-10.893-6.208s4.837-15.3,10.822-18.755,10.882-.674,10.9,6.213-4.837,15.288-10.83,18.75m-.074-26.055c-6.509,3.757-11.791,12.907-11.77,20.4s5.339,10.51,11.848,6.751,11.8-12.912,11.779-20.391-5.338-10.52-11.856-6.757" transform="translate(-400.5 -157.709)"/><g transform="translate(41.795 26.385)"><path class="d" d="M427.205,166.654l-2.712-1.555-2.679,1.547c-.384.222-.725.139-.848-.2a4.886,4.886,0,0,0-.436-.957,1.375,1.375,0,0,1,.167-1.271l.752-1.3.81.235,1.832-1.642-2.677-1.511-.006.013a5.6,5.6,0,0,0-1.557-.629l-1.895,3.276a1.8,1.8,0,0,1-.627.665.81.81,0,0,1-.393.121,4.974,4.974,0,0,0-.756.063l1.8-2.1-2.713-1.554a13.289,13.289,0,0,0-1.931.913,17.51,17.51,0,0,0-1.929,1.315l.008,3.078a1.957,1.957,0,0,1-.6,1.32c-.359.342-.709.712-1.044,1.1a1.587,1.587,0,0,1-.4.335.631.631,0,0,1-.631.062l-1.9-1.084a27.31,27.31,0,0,0-2.718,4.709l1.9,1.089c.268.153.343.586.174,1.075s-.314.971-.434,1.46a1.981,1.981,0,0,1-.839,1.178l-2.683,1.55a17.255,17.255,0,0,0-.169,2.318,13.236,13.236,0,0,0,.181,2.117l2.713,1.554,1.209-.935a2.188,2.188,0,0,1-.121.263l-1.889,3.273a5.381,5.381,0,0,0,1.328,1.022l0,0,2.664,1.519,1.472-2.867-1.262-.656.426-.737a1.811,1.811,0,0,1,.63-.666.813.813,0,0,1,.4-.122,5.525,5.525,0,0,0,1.046-.1c.365-.077.6.182.606.618l.009,3.078,2.712,1.554,1.894-2.667-.749-2.071-.006-2.123a1.962,1.962,0,0,1,.6-1.314,17.476,17.476,0,0,0,1.6-1.773l2.38,1.351a27.506,27.506,0,0,0,2.718-4.708l-1.9-1.084c-.273-.156-.343-.586-.174-1.081a14.731,14.731,0,0,0,.429-1.456,1.968,1.968,0,0,1,.844-1.175l2.679-1.547c0-.035.006-.07.011-.106l.8.029Zm-18.86,13.578h-.018l0-.029Zm5.045-1.684c-2.31,1.334-4.192.261-4.2-2.393a9.2,9.2,0,0,1,4.172-7.232c2.314-1.336,4.192-.261,4.2,2.4A9.194,9.194,0,0,1,413.39,178.548Z" transform="translate(-402.078 -159.375)"/><path class="e" d="M425.592,174.9a1.967,1.967,0,0,1,.844-1.175l2.679-1.547a17.371,17.371,0,0,0,.169-2.318,13.041,13.041,0,0,0-.182-2.117l-2.679,1.546c-.384.222-.725.139-.848-.2a4.9,4.9,0,0,0-.436-.957,1.373,1.373,0,0,1,.167-1.271l1.89-3.278a5.487,5.487,0,0,0-2.736-1.56l-1.895,3.277a1.8,1.8,0,0,1-.627.665.8.8,0,0,1-.393.12,5.031,5.031,0,0,0-1.052.109c-.36.068-.6-.182-.605-.624l-.009-3.078a13.261,13.261,0,0,0-1.931.913,17.459,17.459,0,0,0-1.929,1.315l.008,3.078a1.956,1.956,0,0,1-.6,1.32c-.36.342-.709.712-1.044,1.1a1.587,1.587,0,0,1-.395.335.631.631,0,0,1-.631.062l-1.9-1.084a27.272,27.272,0,0,0-2.719,4.708l1.9,1.09c.268.152.343.585.174,1.075s-.314.97-.434,1.459a1.981,1.981,0,0,1-.839,1.178l-2.683,1.549a17.059,17.059,0,0,0-.169,2.319,13.231,13.231,0,0,0,.181,2.117l2.683-1.549c.379-.219.72-.142.843.2a5.308,5.308,0,0,0,.441.954,1.4,1.4,0,0,1-.167,1.277l-1.89,3.273a5.368,5.368,0,0,0,2.736,1.56l1.89-3.274a1.819,1.819,0,0,1,.629-.666.829.829,0,0,1,.4-.122,5.477,5.477,0,0,0,1.047-.1c.365-.077.6.182.606.619l.008,3.078a12.777,12.777,0,0,0,1.931-.908,16.718,16.718,0,0,0,1.929-1.321l-.009-3.078a1.965,1.965,0,0,1,.6-1.314,17.35,17.35,0,0,0,1.6-1.773l2.38,1.351a27.48,27.48,0,0,0,2.718-4.708l-1.9-1.084c-.273-.155-.343-.586-.174-1.08A14.622,14.622,0,0,0,425.592,174.9Zm-7.62-3.333c2.314-1.336,4.192-.26,4.2,2.4A9.2,9.2,0,0,1,418,181.19c-2.309,1.333-4.192.26-4.2-2.393A9.205,9.205,0,0,1,417.971,171.565Zm-5.017,11.309h-.019l0-.028Z" transform="translate(-403.974 -160.462)"/><path class="f" d="M421.242,187.091c-3.2,1.846-5.81.357-5.82-3.317a12.769,12.769,0,0,1,5.782-10.021c3.2-1.849,5.814-.36,5.825,3.32a12.768,12.768,0,0,1-5.787,10.018m-.04-13.922a13.886,13.886,0,0,0-6.289,10.9c.012,4,2.853,5.615,6.33,3.607a13.886,13.886,0,0,0,6.294-10.9c-.012-4-2.852-5.621-6.335-3.61" transform="translate(-407.212 -164.506)"/></g></svg>